<?xml  version="1.0" encoding="UTF-8"?>
<!DOCTYPE svg PUBLIC "-//W3C//DTD SVG 1.0//EN" "http://www.w3.org/TR/2001/REC-SVG-20010904/DTD/svg10.dtd" >
<svg xmlns="http://www.w3.org/2000/svg" >
<metadata>
<version>1.0</version>
<id><![CDATA[Univers LT W01 59 Ultra Cn]]></id>
<vendor>Monotype Imaging Inc.</vendor>
<credits>
<name>Fonts.com WebFonts</name>
<URL>http://webfonts.fonts.com</URL>
<role>Home of the Web fonts</role>
</credits>
<license>
<URL>http://webfonts.fonts.com/Legal</URL>
</license>
<copyright><![CDATA[Copyright © 2009 Linotype Corp., www.linotype.com. All rights reserved. This font software may not be reproduced, modified, disclosed or transferred without the express written approval of Linotype Corp. Univers is a trademark of Linotype Corp. registered in the U.S. Patent and Trademark Office and may be registered in certain other jurisdictions in the name of Linotype Corp. or its licensee Linotype GmbH. This typeface is original artwork of Adrian Frutiger. The design may be protected in certain jurisdictions.]]></copyright>
<trademark><![CDATA[Univers is a trademark of Linotype Corp. registered in the U.S. Patent and Trademark Office and may be registered in certain other jurisdictions in the name of Linotype Corp. or its licensee Linotype GmbH.]]></trademark>
<licensee>
<name></name>
</licensee>
</metadata>
<defs >
<font horiz-adv-x="351" id="383b7b06-99d7-4749-85ac-bf144981cfce">
<font-face font-family="" panose-1="2 11 5 8 3 5 2 6 2 4" ascent="963" descent="-214" units-per-em="1000" alphabetic="0">
</font-face>
<missing-glyph horiz-adv-x="0" />

<glyph unicode="&#xA;" />
<glyph unicode="&#xD;" horiz-adv-x="0" />
<glyph unicode=" " horiz-adv-x="186" />
<glyph unicode="!" horiz-adv-x="222" d="M148 165H70L58 722H166L148 165ZM56 0V101H161V0H56Z"  />
<glyph unicode="&quot;" horiz-adv-x="278" d="M234 434H175L160 722H249L234 434ZM103 434H44L29 722H118L103 434Z"  />
<glyph unicode="#" horiz-adv-x="372" d="M307 443L276 278H334V215H265L226 0H160L199 215H120L82 0H16L54 215H-3V278H66L97 443H39V506H108L148 722H213L174 506H253L292 722H358L318 506H376V443H307ZM163 443L132 278H211L241 443H163Z"  />
<glyph unicode="$" horiz-adv-x="372" d="M345 171Q345 95 315 50T209 -7V-88H158V-7Q129 -3 106 6T65 30T38 70T28 131V209H125V155Q125 112 139 93T186 74Q207 74 219 81T238 100T247 127T250 160Q250 180 248 196T236 229T210 268T163 319L137 346Q113 371 93 394T59 442T37 496T29 562Q29 635 60 675T158 726V807H209V726Q275 723 306 687T337 594V528H243V569Q243 584 242 598T235 624T218 642T187 649Q126 649 126 571Q126 548 131 530T148 492T180 450T229 396L256 367Q286 335 303 310T330 263T342 220T345 171Z"  />
<glyph unicode="%" horiz-adv-x="611" d="M581 84Q581 -5 484 -5Q390 -5 390 76V371Q390 416 413 436T487 456Q538 456 559 433T581 355V84ZM514 356Q514 381 508 391T485 401Q466 401 461 389T456 358V98Q456 70 462 60T486 49Q501 49 507 60T514 98V356ZM220 354Q220 265 123 265Q29 265 29 346V641Q29 686 52 706T126 726Q177 726 198 703T220 625V354ZM153 626Q153 651 147 661T124 671Q105 671 100 659T95 628V368Q95 340 101 330T125 319Q140 319 146 330T153 368V626ZM222 0H157L387 722H453L222 0Z"  />
<glyph unicode="&amp;" horiz-adv-x="407" d="M288 0L279 21Q236 -10 178 -10Q128 -10 100 7T59 53T42 119T39 196Q39 226 41 255T51 309T76 355T119 392Q64 487 64 571Q64 643 98 682T194 722Q256 722 288 687T320 586Q320 553 314 527T296 478T264 431T216 379L283 214V365H368V215Q368 185 364 153T343 95L389 0H288ZM237 581Q237 647 192 647Q149 647 149 578Q149 540 157 510T182 444Q212 479 224 510T237 581ZM150 317Q136 294 134 265T131 188Q131 172 131 151T137 111T153 79T188 65Q218 65 245 95L150 317Z"  />
<glyph unicode="&apos;" horiz-adv-x="186" d="M121 434H64L48 722H137L121 434Z"  />
<glyph unicode="(" horiz-adv-x="222" d="M150 -161Q132 -107 115 -53T84 56T62 167T54 281Q54 395 82 505T149 722H215Q185 614 166 500T147 273Q147 164 167 54T217 -161H150Z"  />
<glyph unicode=")" horiz-adv-x="222" d="M168 281Q168 223 160 167T138 56T107 -53T72 -161H5Q35 -57 55 53T75 273Q75 385 56 499T7 722H73Q111 616 139 506T168 281Z"  />
<glyph unicode="*" horiz-adv-x="296" d="M253 488L169 546L174 442H121L127 546L40 488L15 538L108 581L13 626L41 675L127 616L121 722H174L170 616L257 675L282 626L183 581L282 538L253 488Z"  />
<glyph unicode="+" horiz-adv-x="600" d="M343 223V0H256V223H33V310H256V533H343V310H566V223H343Z"  />
<glyph unicode="&#x2c;" horiz-adv-x="186" d="M96 -58H23L51 119H161L96 -58Z"  />
<glyph unicode="-" horiz-adv-x="296" d="M27 221V297H269V221H27Z"  />
<glyph unicode="." horiz-adv-x="186" d="M35 0V119H150V0H35Z"  />
<glyph unicode="/" horiz-adv-x="296" d="M74 -8H6L222 726H290L74 -8Z"  />
<glyph unicode="0" horiz-adv-x="372" d="M334 158Q334 125 330 95T310 43T264 7T181 -7Q130 -7 102 7T59 46T42 102T38 169V553Q38 593 42 625T63 680T108 715T188 727Q235 727 263 716T308 683T329 631T334 563V158ZM240 572Q240 586 239 600T233 625T218 644T188 651Q166 651 155 641T138 615T133 581T132 547V175Q132 160 132 142T136 107T151 79T184 68Q202 68 213 75T230 93T238 119T240 147V572Z"  />
<glyph unicode="1" horiz-adv-x="372" d="M160 0V586Q141 563 123 546T81 510V605Q93 616 106 630T132 660T155 692T172 722H255V0H160Z"  />
<glyph unicode="2" horiz-adv-x="372" d="M30 0V97Q40 115 47 127T61 152T78 181T101 223Q130 278 153 323T196 405Q208 428 215 447T227 484T234 523T236 568Q236 618 224 637T180 656Q163 656 154 647T141 624T137 595T136 568V538H44V588Q44 629 51 656T76 699T120 722T188 729Q233 729 261 718T304 686T324 633T330 561Q330 516 326 485T311 428T286 375T250 308L131 86H338V0H30Z"  />
<glyph unicode="3" horiz-adv-x="372" d="M337 189Q337 141 332 104T309 43T259 6T174 -7Q132 -7 105 2T62 31T40 78T34 143V195H130V136Q130 67 182 67Q204 67 216 76T234 101T240 134T241 168V253Q241 299 221 315T156 331H130V414H159Q189 414 204 420T227 438T235 468T236 510V587Q236 613 226 632T186 651Q168 651 158 644T143 625T137 599T135 571V542H41V583Q41 663 75 695T187 727Q239 727 268 712T312 669T329 605T332 523Q332 490 330 465T319 420T292 389T243 372Q280 366 299 351T327 313T336 259T337 189Z"  />
<glyph unicode="4" horiz-adv-x="372" d="M306 175V0H212V175H22V258L182 722H306V249H350V175H306ZM212 582L107 249H212V582Z"  />
<glyph unicode="5" horiz-adv-x="372" d="M338 138Q338 98 327 71T295 26T245 1T181 -7Q114 -7 75 24T35 126V195H131V138Q131 125 133 112T140 89T156 72T183 65Q205 65 217 75T236 100T243 133T244 168V298Q244 313 244 329T239 358T223 380T191 389Q164 389 149 369T134 313V286H42V722H322V644H136V423Q156 444 176 453T224 463Q257 463 279 454T314 427T332 385T338 330V138H338Z"  />
<glyph unicode="6" horiz-adv-x="372" d="M337 159Q337 126 333 97T313 44T266 8T183 -6Q131 -6 101 7T56 42T38 92T34 152V578Q34 602 39 629T60 678T105 714T185 729Q256 729 294 697T332 592V538H236V562Q236 577 236 593T232 622T217 643T185 651Q151 651 141 630T130 581V428Q169 468 220 468Q262 468 285 453T320 414T334 362T337 310V159ZM238 326Q238 339 237 351T230 372T215 387T188 393Q156 393 143 371T130 293V133Q130 105 142 86T186 67Q203 67 213 73T229 88T236 110T238 137V326Z"  />
<glyph unicode="7" horiz-adv-x="372" d="M190 0H86L242 635H26V722H338V630L190 0Z"  />
<glyph unicode="8" horiz-adv-x="372" d="M337 131Q337 106 332 81T311 37T265 5T183 -8Q135 -8 106 5T60 39T39 89T34 146V247Q34 294 52 328T118 371Q91 379 76 393T52 426T42 467T40 513V574Q40 657 73 693T183 730Q229 730 258 718T303 686T324 641T330 587V500Q330 478 328 458T318 420T296 390T256 372Q303 362 320 331T337 245V131ZM234 570Q234 584 234 599T230 626T215 645T185 653Q167 653 157 645T143 624T138 596T137 567V511Q137 497 137 480T142 447T157 422T187 412Q204 412 213 418T227 435T233 458T234 484V570ZM241 245Q241 261 241 277T235 305T218 325T186 333Q166 333 156 326T140 308T134 282T133 252V135Q133 121 135 109T142 87T158 72T186 66Q205 66 216 72T232 88T239 112T241 141V245Z"  />
<glyph unicode="9" horiz-adv-x="372" d="M338 155Q338 125 333 96T312 45T265 8T186 -6Q114 -6 77 25T39 121V185H135V162Q135 147 135 131T140 102T155 80T186 71Q207 71 218 80T235 102T241 132T242 164V294Q221 272 200 263T151 253Q110 253 87 268T52 308T38 362T35 421V563Q35 595 39 625T59 678T105 715T188 729Q240 729 270 715T315 679T334 628T338 570V155ZM242 572Q242 587 241 602T235 629T218 648T186 655Q169 655 159 650T143 635T135 613T133 586V397Q133 384 134 372T141 351T156 336T183 330Q215 330 228 352T242 429V572Z"  />
<glyph unicode=":" horiz-adv-x="186" d="M35 377V495H151V377H35ZM35 0V119H151V0H35Z"  />
<glyph unicode=";" horiz-adv-x="186" d="M36 377V495H152V377H36ZM99 -58H25L53 119H162L99 -58Z"  />
<glyph unicode="&lt;" horiz-adv-x="600" d="M44 223V311L556 511V418L156 267L556 117V23L44 223Z"  />
<glyph unicode="=" horiz-adv-x="600" d="M33 307V393H566V307H33ZM33 142V227H566V142H33Z"  />
<glyph unicode="&gt;" horiz-adv-x="600" d="M44 23V117L443 267L44 418V511L556 311V223L44 23Z"  />
<glyph unicode="?" horiz-adv-x="315" d="M288 594Q288 548 283 521T266 469L232 400Q222 380 212 356T198 308Q196 293 195 283T194 245V163H114V282Q114 298 114 308T114 326T116 338T118 351Q121 368 126 386T148 441L175 505Q185 529 190 552T195 601Q195 637 188 650T161 663Q139 663 132 647T125 612V549H32V591Q32 625 36 651T52 694T89 720T154 729Q196 729 222 721T262 695T282 652T288 594ZM101 0V101H207V0H101Z"  />
<glyph unicode="@" horiz-adv-x="856" d="M511 399Q511 429 499 448T453 467Q425 467 407 452T378 413T360 363T348 310Q343 285 339 261T334 215Q334 186 344 169T384 151Q414 151 433 166T466 207T487 263T502 326Q506 346 508 364T511 399ZM501 184Q479 146 443 123T364 100Q306 100 280 132T254 212Q254 240 258 268T269 324Q278 363 290 398T321 461T370 504T443 521Q472 521 495 506T532 469L542 515H622L573 292Q568 272 563 248T556 204Q556 184 567 172T606 159Q641 159 671 181T724 237T759 314T772 398Q772 465 746 516T676 603T574 657T450 676Q365 676 297 648T182 569T110 449T84 298Q84 217 108 152T179 41T289 -29T433 -54Q525 -54 598 -27T746 52L776 13Q695 -46 613 -76T430 -107Q341 -107 267 -80T140 0T57 128T27 299Q27 394 58 473T145 609T279 698T450 730Q525 730 593 708T714 643T798 538T829 396Q829 347 814 295T769 199T695 129T593 101Q558 101 530 120T501 184Z"  />
<glyph unicode="A" horiz-adv-x="444" d="M333 0L296 186H145L111 0H10L170 722H285L433 0H333ZM223 616L161 267H282L223 616Z"  />
<glyph unicode="B" horiz-adv-x="389" d="M360 195Q360 149 356 113T337 51T289 13T202 0H37V722H215Q264 722 292 710T334 676T351 620T355 545Q355 496 351 465T337 414T309 386T263 372Q294 365 313 356T342 329T356 285T360 215V195ZM259 538Q259 564 258 583T250 616T227 635T180 642H135V412H191Q214 412 227 416T248 433T257 471T259 538ZM264 202Q264 248 262 274T252 313T231 329T197 332H135V79H191Q213 79 227 82T249 97T261 133T264 202Z"  />
<glyph unicode="C" horiz-adv-x="352" d="M246 526V567Q246 605 231 626T189 647Q165 647 152 632T133 596T127 552T126 510V207Q126 193 126 171T132 128T150 92T187 76Q243 76 243 165V209H339V135Q339 107 334 82T312 37T267 6T190 -6Q26 -6 26 154V514Q26 551 28 589T46 658T95 709T189 729Q340 729 340 593V526H246Z"  />
<glyph unicode="D" horiz-adv-x="407" d="M375 236Q375 178 370 134T345 60T288 15T186 0H37V722H212Q272 722 305 706T353 657T372 575T375 461V236ZM273 517Q273 554 269 578T255 615T225 633T175 638H138V84H184Q212 84 229 91T257 117T270 166T273 244V517Z"  />
<glyph unicode="E" horiz-adv-x="315" d="M37 0V722H308V638H137V412H297V328H137V84H308V0H37Z"  />
<glyph unicode="F" horiz-adv-x="315" d="M137 638V412H303V328H137V0H37V722H312V638H137Z"  />
<glyph unicode="G" horiz-adv-x="407" d="M360 10Q340 6 319 3T276 -3T237 -6T206 -8Q124 -8 81 31T37 150V542Q37 582 43 615T67 674T119 713T209 727Q244 727 273 721T323 699T356 658T368 593V531H272V563Q272 579 270 594T260 622T240 641T207 649Q183 649 169 638T149 610T140 572T138 533V172Q138 130 156 101T217 71Q228 71 241 72T272 79V295H207V377H370V12L360 10Z"  />
<glyph unicode="H" horiz-adv-x="409" d="M271 0V328H137V0H37V722H137V412H271V722H371V0H271Z"  />
<glyph unicode="I" horiz-adv-x="168" d="M34 0V722H133V0H34Z"  />
<glyph unicode="J" horiz-adv-x="315" d="M281 136Q281 108 275 83T253 38T208 6T133 -6Q67 -6 37 25T7 111V212H104V156Q104 110 112 93T142 75Q158 75 166 83T177 104T181 129T182 154V722H281V136H281Z"  />
<glyph unicode="K" horiz-adv-x="407" d="M297 0L136 361V0H36V722H136V393L293 722H397L228 383L408 0H297Z"  />
<glyph unicode="L" horiz-adv-x="315" d="M37 0V722H138V84H305V0H37Z"  />
<glyph unicode="M" horiz-adv-x="574" d="M446 0V649L339 0H239L126 649V0H37V722H197L291 172L384 722H538V0H446Z"  />
<glyph unicode="N" horiz-adv-x="426" d="M254 0L126 615V0H37V722H178L300 123V722H391V0H254Z"  />
<glyph unicode="O" horiz-adv-x="409" d="M372 168Q372 138 366 107T342 50T290 8T201 -8Q145 -8 112 8T62 50T40 111T34 180V537Q34 573 41 607T67 669T120 712T206 729Q255 729 287 715T338 676T364 622T372 559V168ZM274 530Q274 549 272 569T263 607T242 636T203 648Q181 648 168 638T146 611T135 576T132 540V160Q132 145 135 129T147 100T169 78T203 69Q225 69 239 79T260 104T271 135T274 165V530Z"  />
<glyph unicode="P" horiz-adv-x="389" d="M364 513Q364 460 359 423T338 361T293 326T217 315H137V0H37V722H210Q265 722 296 710T342 671T360 606T364 513ZM265 523Q265 560 263 582T254 617T234 634T197 638H137V399H185Q213 399 229 401T253 416T263 453T265 523Z"  />
<glyph unicode="Q" horiz-adv-x="426" d="M215 -8H201Q145 -8 113 8T63 50T40 111T35 180V537Q35 573 42 607T68 669T120 712T206 729Q255 729 287 715T338 676T364 622T372 559V168Q372 143 369 118T354 70Q368 72 384 73T420 74H428V-3L215 -8ZM274 530Q274 549 272 569T263 607T242 636T203 648Q181 648 168 638T146 611T135 576T132 540V160Q132 145 135 129T147 100T169 78T203 69Q225 69 239 79T260 104T271 135T274 165V530Z"  />
<glyph unicode="R" horiz-adv-x="389" d="M261 0Q256 11 254 23T251 58V236Q251 279 237 299T177 319H138V0H39V722H202Q247 722 282 713T335 670Q346 650 349 612T353 522Q353 488 350 462T337 417T309 384T259 361Q307 353 327 328T348 248V84Q348 63 349 42T356 0H261ZM255 516Q255 559 253 583T243 620T221 634T183 637H138V402H169Q196 402 213 406T239 422T252 457T255 516Z"  />
<glyph unicode="S" horiz-adv-x="370" d="M343 171Q343 85 306 39T176 -7Q107 -7 67 27T26 121V209H123V155Q123 112 137 93T184 74Q205 74 217 81T236 100T245 127T248 160Q248 182 244 200T229 236T203 273T161 319L135 346Q111 371 91 394T57 442T35 496T27 562Q27 643 67 685T187 727Q226 727 254 717T300 689T326 647T335 594V528H241V569Q241 584 240 598T233 624T216 642T185 649Q124 649 124 571Q124 548 129 530T146 492T178 450T227 396L254 367Q282 336 299 312T327 266T340 222T343 171Z"  />
<glyph unicode="T" horiz-adv-x="352" d="M226 638V0H126V638H6V722H346V638H226Z"  />
<glyph unicode="U" horiz-adv-x="407" d="M373 167Q373 134 365 103T338 48T285 10T201 -5Q155 -5 124 6T72 38T43 84T34 141V722H134V154Q134 119 149 97T204 74Q230 74 244 82T264 105T272 138T273 176V722H373V167H373Z"  />
<glyph unicode="V" horiz-adv-x="426" d="M269 0H154L9 722H109L213 148L319 722H418L269 0Z"  />
<glyph unicode="W" horiz-adv-x="667" d="M524 0H401L334 605L249 0H127L13 722H115L189 128L271 722H407L472 128L560 722H655L524 0Z"  />
<glyph unicode="X" horiz-adv-x="426" d="M311 0L213 265L107 0H8L163 375L21 722H126L218 467L316 722H415L268 365L417 0H311Z"  />
<glyph unicode="Y" horiz-adv-x="407" d="M252 295V0H153V295L15 722H116L206 417L302 722H392L252 295Z"  />
<glyph unicode="Z" horiz-adv-x="352" d="M10 0V90L235 638H38V722H336V637L109 84H341V0H10Z"  />
<glyph unicode="[" horiz-adv-x="222" d="M58 -158V722H216V651H142V-88H216V-158H58Z"  />
<glyph unicode="\" horiz-adv-x="296" d="M222 -8L6 726H74L290 -8H222Z"  />
<glyph unicode="]" horiz-adv-x="222" d="M7 -158V-88H81V651H7V722H166V-158H7Z"  />
<glyph unicode="^" horiz-adv-x="600" d="M421 299L297 611L178 299H86L259 722H340L513 299H421Z"  />
<glyph unicode="_" horiz-adv-x="500" d="M0 -125V-75H500V-125H0Z"  />
<glyph unicode="`" horiz-adv-x="168" d="M-15 722H86L153 581H92L-15 722Z"  />
<glyph unicode="a" horiz-adv-x="335" d="M211 0V52Q202 42 194 32T175 13T150 0T117 -6Q96 -6 79 -2T50 17T32 59T25 131Q25 169 26 193T32 234T42 261T59 282Q67 291 76 296T100 306T139 311T205 313V394Q205 416 198 429T166 442Q146 442 136 433T126 400V354H32V399Q32 508 166 508Q231 508 265 480T299 386V0H211ZM205 247H175Q142 247 131 225T119 144Q119 116 120 100T126 74T137 63T156 60Q180 60 192 76T205 118V247Z"  />
<glyph unicode="b" horiz-adv-x="333" d="M301 113Q301 92 297 71T282 33T254 5T212 -6Q164 -6 123 37V0H33V722H127V466Q145 488 164 498T210 508Q238 508 256 497T284 468T297 430T301 393V113ZM206 375Q206 384 205 396T201 418T190 435T170 442Q149 442 138 423T127 368V107Q127 84 138 71T167 57Q188 57 197 74T206 136V375Z"  />
<glyph unicode="c" horiz-adv-x="296" d="M278 90Q278 42 243 18T151 -7Q85 -7 55 24T24 121V375Q24 508 158 508Q214 508 246 483T278 415V336H190V394Q190 410 184 426T155 443Q135 443 127 427T119 373V116Q119 85 127 72T154 59Q188 59 188 116V170H278V90H278Z"  />
<glyph unicode="d" horiz-adv-x="333" d="M211 0V37Q192 17 169 6T122 -6Q97 -6 80 4T53 30T38 67T33 109V393Q33 411 36 431T49 468T76 496T124 508Q150 508 169 498T207 466V722H300V0H211ZM207 368Q207 442 164 442Q152 442 145 436T134 419T129 398T128 378V136Q128 92 136 75T167 57Q185 57 196 70T207 107V368Z"  />
<glyph unicode="e" horiz-adv-x="333" d="M304 96Q304 67 292 48T261 16T217 -1T168 -7Q97 -7 64 23T30 126V373Q30 445 67 476T173 508Q242 508 273 474T304 372V221H125V112Q125 56 171 56Q195 56 205 72T216 125V165H304V96ZM215 374Q215 416 206 431T170 447Q125 447 125 392V286H215V374Z"  />
<glyph unicode="f" horiz-adv-x="204" d="M147 433V0H52V433H5V500H52V625Q52 683 80 703T165 724H205V653H185Q147 653 147 611V500H205V433H147Z"  />
<glyph unicode="g" horiz-adv-x="333" d="M300 -36Q300 -114 267 -150T161 -186Q103 -186 73 -161T42 -86V-44H136V-81Q136 -125 170 -125Q190 -125 198 -112T206 -68V53Q178 12 128 12Q83 12 58 41T33 125V382Q33 506 127 506Q153 506 173 494T212 455V500H300V-36ZM206 380Q206 413 197 428T164 443Q144 443 136 430T128 385V148Q128 76 169 76Q189 76 197 91T206 141V380Z"  />
<glyph unicode="h" horiz-adv-x="333" d="M205 0V387Q205 416 197 427T169 438Q128 438 128 387V0H34V722H128V459Q143 484 163 496T213 508Q255 508 277 483T299 411V0H205Z"  />
<glyph unicode="i" horiz-adv-x="168" d="M32 622V722H136V622H32ZM37 0V500H131V0H37Z"  />
<glyph unicode="j" horiz-adv-x="168" d="M31 622V722H135V622H31ZM131 -89Q131 -121 122 -141T97 -171T56 -185T1 -189Q-1 -189 -4 -189T-13 -188V-119H-7Q17 -119 26 -111T36 -79V500H131V-89Z"  />
<glyph unicode="k" horiz-adv-x="315" d="M215 0L128 258V0H34V722H128V288L214 500H304L212 276L314 0H215Z"  />
<glyph unicode="l" horiz-adv-x="168" d="M37 0V722H131V0H37Z"  />
<glyph unicode="m" horiz-adv-x="520" d="M384 0V387Q384 440 347 440Q309 440 309 394V0H215V378Q215 440 177 440Q136 440 136 386V0H42V500H131V455Q153 483 174 495T224 508Q251 508 268 497T303 458Q322 484 340 496T385 508Q427 508 452 480T478 405V0H384Z"  />
<glyph unicode="n" horiz-adv-x="333" d="M204 0V387Q204 416 196 427T169 438Q130 438 130 390V0H34V500H124V459Q143 485 163 496T211 508Q235 508 252 500T279 478T293 447T298 411V0H204Z"  />
<glyph unicode="o" horiz-adv-x="333" d="M302 129Q302 -6 163 -6Q99 -6 66 28T32 130V377Q32 438 68 473T168 508Q231 508 266 476T302 378V129ZM208 374Q208 412 199 427T168 443Q126 443 126 380V121Q126 88 135 74T167 59Q189 59 198 76T208 135V374Z"  />
<glyph unicode="p" horiz-adv-x="333" d="M301 120Q301 97 298 82T290 52Q280 26 258 10T206 -6Q164 -6 127 28V-184H33V500H123V446Q142 478 162 492T213 506Q301 506 301 376V120ZM206 364Q206 403 198 419T170 435Q151 435 139 420T127 380V118Q127 59 168 59Q188 59 197 75T206 127V364Z"  />
<glyph unicode="q" horiz-adv-x="333" d="M207 -184V28Q189 11 169 3T128 -6Q82 -6 58 27T33 120V376Q33 442 54 474T124 506Q152 506 171 492T211 446V500H300V-184H207ZM207 380Q207 405 195 420T164 435Q144 435 136 419T128 364V127Q128 89 136 74T166 59Q207 59 207 118V380Z"  />
<glyph unicode="r" horiz-adv-x="204" d="M201 412Q128 412 128 350V0H34V500H124V449Q133 465 141 475T158 492T178 502T206 505V412H201Z"  />
<glyph unicode="s" horiz-adv-x="296" d="M271 117Q271 51 239 23T139 -5Q83 -5 53 19T23 88V168H113V101Q113 78 121 69T147 59Q167 59 174 69T182 106V135Q182 148 180 158T172 177T154 198T123 226L93 252Q76 267 64 279T43 304T31 333T27 372Q27 406 33 432T54 474T93 499T155 508Q205 508 235 486T266 411V340H182V390Q182 419 174 431T148 444Q118 444 118 405V379Q118 364 124 351T139 327T159 307T181 288L213 261Q244 235 257 210T271 143V117H271Z"  />
<glyph unicode="t" horiz-adv-x="204" d="M216 0Q205 0 190 -1T161 -2Q137 -2 117 0T82 10T60 33T52 76V433H1V500H52V597L147 630V500H210V433H147V109Q147 83 157 74T194 64Q200 64 205 64T216 66V0H216Z"  />
<glyph unicode="u" horiz-adv-x="333" d="M209 0V40Q190 15 170 4T123 -7Q97 -7 80 1T52 23T38 57T34 98V500H128V113Q128 84 136 73T163 61Q203 61 203 111V500H297V0H209Z"  />
<glyph unicode="v" horiz-adv-x="333" d="M215 0H105L6 500H103L167 95L234 500H328L215 0Z"  />
<glyph unicode="w" horiz-adv-x="537" d="M429 0H322L270 389L202 0H99L8 500H107L158 109L217 500H325L382 113L435 500H528L429 0Z"  />
<glyph unicode="x" horiz-adv-x="315" d="M214 0L153 177L89 0H-3L106 265L9 500H113L163 348L219 500H309L211 253L317 0H214Z"  />
<glyph unicode="y" horiz-adv-x="333" d="M164 -179H76L120 7L6 500H106L169 139L236 500H327L164 -179Z"  />
<glyph unicode="z" horiz-adv-x="241" d="M11 0V90L144 428H11V500H231V416L95 72H231V0H11Z"  />
<glyph unicode="{" horiz-adv-x="222" d="M215 -161Q175 -161 147 -156T101 -138T75 -104T67 -50V155Q67 193 64 212T54 240T35 250T6 254V308Q23 310 34 311T53 321T64 349T67 407V612Q67 676 101 699T215 723V668Q180 664 167 654T154 607V423Q154 385 150 360T137 318T111 293T69 281Q94 278 110 270T136 245T150 202T154 139V-45Q154 -81 167 -91T215 -106V-161H215Z"  />
<glyph unicode="|" horiz-adv-x="222" d="M67 -214V786H156V-214H67Z"  />
<glyph unicode="}" horiz-adv-x="222" d="M215 254Q198 252 187 251T168 241T158 213T154 155V-50Q154 -82 146 -103T121 -138T75 -156T6 -161V-106Q24 -104 36 -101T55 -92T65 -74T68 -45V139Q68 176 71 202T85 244T111 269T153 281Q127 284 111 292T85 317T72 359T68 423V607Q68 625 65 636T55 653T36 663T6 668V723Q46 723 74 718T120 700T146 666T154 612V407Q154 369 157 350T168 322T186 312T215 308V254H215Z"  />
<glyph unicode="~" horiz-adv-x="600" d="M566 342Q563 312 554 285T529 235T488 200T430 187Q411 187 387 192T336 206T285 223T242 238Q225 244 204 251T164 258Q133 258 116 235T93 184H35Q37 198 39 211T45 237Q58 281 90 310T170 340Q206 340 242 328T311 304Q324 300 340 294T374 283T408 274T438 270Q470 270 486 291T509 342H566H566Z"  />
<glyph unicode="&#xA0;" horiz-adv-x="186" />
<glyph unicode="&#xA1;" horiz-adv-x="222" d="M74 375H152L164 -182H56L74 375ZM61 540H166V439H61V540Z"  />
<glyph unicode="&#xA2;" horiz-adv-x="372" d="M165 574H212V502Q232 500 249 494T281 475Q295 464 303 448T312 410V331H224V376Q224 385 224 396T220 416T209 431T190 438Q177 438 170 431T159 413T155 390T154 368V115Q154 106 155 96T159 78T169 65T187 59Q210 59 216 77T223 115V169H312V98Q312 50 286 24T212 -5V-88H165V-5Q136 -3 117 6T84 32Q71 49 66 71T60 120V370Q60 394 66 417T86 458T119 488T165 502V574Z"  />
<glyph unicode="&#xA3;" horiz-adv-x="372" d="M9 76H53V352H9V421H53V516Q53 553 55 590T73 659T120 709T212 729Q363 729 363 593V526H269V567Q269 605 254 626T212 647Q188 647 175 632T156 596T150 552T149 510V421H258V352H149V76H362V0H9V76Z"  />
<glyph unicode="&#xA4;" horiz-adv-x="372" d="M189 206Q159 206 135 214T91 237L57 204L29 232L62 266Q48 285 40 308T31 361Q31 390 39 413T62 456L29 490L57 518L91 485Q111 499 135 507T189 516Q215 516 238 508T281 485L315 518L343 490L310 456Q324 437 332 414T341 361Q341 333 333 309T310 267L343 232L315 204L280 238Q262 223 239 215T189 206ZM186 266Q205 266 222 273T253 294T273 324T281 361Q281 380 274 397T253 428T223 448T186 456Q166 456 149 449T119 428T99 398T91 361Q91 341 98 324T119 294T149 274T186 266Z"  />
<glyph unicode="&#xA5;" horiz-adv-x="372" d="M139 149H36V215H139V301H36V367H118L15 722H103L186 412L279 722H357L252 367H336V301H233V215H336V149H233V0H139V149Z"  />
<glyph unicode="&#xA6;" horiz-adv-x="186" d="M51 454V728H135V454H51ZM51 -6V268H135V-6H51Z"  />
<glyph unicode="&#xA7;" horiz-adv-x="296" d="M275 116Q275 84 263 61T229 22T177 0T110 -8Q87 -8 65 -6T20 -2V68Q41 64 63 63T107 62Q149 62 168 77T187 116Q187 141 177 159T141 197L100 230Q79 246 65 259T40 288T26 322T21 372Q21 393 23 408T32 435T50 459T77 481Q45 507 33 535T20 607Q20 672 57 700T165 729Q188 729 212 727T260 722V655Q237 658 212 660T174 662Q110 662 110 618Q110 602 113 590T124 566T148 544T186 519Q211 504 227 489T254 457T268 418T272 368Q272 275 206 253Q242 230 258 197T275 116ZM190 363Q190 415 139 442Q130 434 124 428T114 415T108 399T106 377Q106 345 118 330T154 297Q190 320 190 363Z"  />
<glyph unicode="&#xA8;" horiz-adv-x="168" d="M-37 692H43V594H-37V692ZM124 692H205V594H124V692Z"  />
<glyph unicode="&#xA9;" horiz-adv-x="800" d="M766 362Q766 286 737 220T659 104T543 25T400 -4Q324 -4 258 25T141 103T62 219T33 362Q33 438 62 505T140 621T257 700T400 729Q476 729 543 700T659 622T737 505T766 362ZM714 362Q714 427 690 484T623 584T523 651T400 676Q335 676 278 652T178 585T111 485T86 362Q86 297 110 240T177 140T277 73T400 48Q465 48 522 72T622 140T689 240T714 362ZM580 294Q576 261 561 234T524 189T472 160T410 149Q364 149 327 166T264 212T223 281T209 364Q209 407 222 446T260 514T321 561T402 579Q435 579 466 569T521 539T560 491T578 429H511Q504 471 475 496T403 521Q371 521 348 508T311 472T289 422T282 366Q282 337 289 309T312 258T352 221T409 207Q450 207 477 230T513 294H580Z"  />
<glyph unicode="&#xAA;" horiz-adv-x="216" d="M78 427Q64 427 53 430T34 441T22 464T17 506Q17 530 18 545T21 571T28 587T39 599Q45 604 50 607T65 613T91 616T133 617V649Q133 664 128 673T110 682Q98 682 93 673T88 649V636H22V662Q22 697 43 712T109 728Q147 728 173 712T199 653V431H139V460Q128 448 115 438T78 427ZM103 473Q117 473 125 482T133 506V571H116Q97 571 90 560T83 517Q83 488 87 481T103 473Z"  />
<glyph unicode="&#xAB;" horiz-adv-x="333" d="M239 58L161 256L239 453H312L251 256L312 58H239ZM101 58L21 256L101 453H172L112 256L172 58H101Z"  />
<glyph unicode="&#xAC;" horiz-adv-x="600" d="M467 102V309H41V392H553V102H467Z"  />
<glyph unicode="&#xAD;" horiz-adv-x="296" d="M27 221V297H269V221H27Z"  />
<glyph unicode="&#xAE;" horiz-adv-x="400" d="M383 546Q383 508 369 475T330 416T272 377T200 362Q162 362 129 376T71 416T32 474T17 546Q17 584 31 617T70 675T128 714T200 729Q238 729 271 715T329 676T368 618T383 546ZM353 546Q353 577 341 605T308 654T259 687T200 699Q168 699 141 687T93 654T60 605T48 546Q48 514 60 487T92 438T140 405T200 393Q231 393 259 405T308 438T341 486T353 546ZM245 448Q239 463 239 477T238 501T226 517T192 523H167V448H125V645H199Q213 645 228 643T256 635T277 618T285 588Q285 568 276 558T249 540Q267 533 273 523T280 500T281 474T287 448H245ZM242 584Q242 603 227 607T197 612H167V556H195Q202 556 210 556T226 560T237 568T242 584Z"  />
<glyph unicode="&#xAF;" horiz-adv-x="168" d="M-49 662H216V610H-49V662Z"  />
<glyph unicode="&#xB0;" horiz-adv-x="400" d="M358 571Q358 538 346 510T312 460T262 426T200 413Q167 413 138 425T88 459T55 509T42 571Q42 604 54 632T88 682T138 716T200 729Q233 729 261 717T311 683T345 633T358 571ZM284 571Q284 589 278 604T260 630T233 648T200 655Q165 655 141 631T116 571Q116 554 122 539T140 512T167 494T200 487Q235 487 259 511T284 571Z"  />
<glyph unicode="&#xB1;" horiz-adv-x="600" d="M345 271V107H255V271H44V354H255V521H345V354H556V271H345ZM44 -14V69H556V-14H44Z"  />
<glyph unicode="&#xB2;" horiz-adv-x="240" d="M15 351Q46 399 68 437T111 512Q121 530 128 544T139 572T145 600T147 634Q147 678 122 678Q109 678 103 665T97 632V610H19V644Q19 666 23 681T38 707T70 723T122 728Q153 728 173 723T204 705T220 674T225 627Q225 610 224 596T220 569T211 541T195 511L96 351H224V291H15V351Z"  />
<glyph unicode="&#xB3;" horiz-adv-x="240" d="M119 287Q87 287 67 293T36 311T20 345T15 396V409H93V391Q93 337 119 337Q147 337 147 391V437Q147 463 137 473T97 483H82V543H101Q127 543 136 552T145 589V635Q145 661 138 669T123 678Q109 678 102 665T95 628V615H17Q17 647 21 668T37 703Q49 717 70 722T123 728Q155 728 174 722T205 701T219 665T223 612Q223 584 221 567T212 539T193 523T160 515V513Q177 511 189 507T210 491T221 457T225 396Q225 366 221 345T205 312T173 293T119 287Z"  />
<glyph unicode="&#xB4;" horiz-adv-x="168" d="M103 722H203L95 581H34L103 722Z"  />
<glyph unicode="&#xB5;" horiz-adv-x="333" d="M211 0V40Q193 17 174 9T130 0V-184H36V500H130V119Q130 90 138 79T165 67Q205 67 205 117V500H299V0H211Z"  />
<glyph unicode="&#xB6;" horiz-adv-x="400" d="M293 0V674H234V0H173V400Q105 406 68 447T31 556Q31 598 45 629T83 680T141 711T212 722H354V0H293Z"  />
<glyph unicode="&#xB7;" horiz-adv-x="186" d="M35 219V338H150V219H35Z"  />
<glyph unicode="&#xB8;" horiz-adv-x="169" d="M77 -189Q55 -189 32 -185T-11 -172L2 -138Q15 -145 32 -147T64 -150Q81 -150 94 -142T107 -111Q107 -91 95 -83T71 -74Q51 -74 34 -81L19 -65L75 18H118L78 -42Q86 -40 93 -39T109 -38Q139 -38 161 -56T184 -107Q184 -128 174 -143T149 -169T114 -184T77 -189Z"  />
<glyph unicode="&#xB9;" horiz-adv-x="240" d="M89 633Q76 617 64 607T38 586V652Q44 656 52 665T69 685T85 706T95 724H167V291H89V633Z"  />
<glyph unicode="&#xBA;" horiz-adv-x="240" d="M121 427Q83 427 56 443T29 498V650Q29 687 52 707T120 728Q158 728 184 712T211 656V504Q211 467 188 447T121 427ZM121 473Q145 473 145 510V645Q145 682 121 682Q106 682 101 672T95 645V510Q95 493 100 483T121 473Z"  />
<glyph unicode="&#xBB;" horiz-adv-x="333" d="M232 58H160L221 256L160 453H232L312 256L232 58ZM92 58H21L81 256L21 453H92L172 256L92 58Z"  />
<glyph unicode="&#xBC;" horiz-adv-x="611" d="M363 730H423L194 -8H134L363 730ZM86 633Q73 617 61 607T35 586V652Q41 656 49 665T66 685T82 706T92 724H164V291H86V633ZM468 100H333V154L437 433H546V154H574V100H546V0H468V100ZM468 154V349H466L399 154H468Z"  />
<glyph unicode="&#xBD;" horiz-adv-x="611" d="M363 730H423L194 -8H134L363 730ZM86 633Q73 617 61 607T35 586V652Q41 656 49 665T66 685T82 706T92 724H164V291H86V633ZM366 60Q397 108 419 146T462 221Q472 239 479 253T490 281T496 309T498 343Q498 387 473 387Q460 387 454 374T448 341V319H370V353Q370 375 374 390T389 416T421 432T473 437Q504 437 524 432T555 414T571 383T576 336Q576 319 575 305T571 278T562 250T546 220L447 60H575V0H366V60Z"  />
<glyph unicode="&#xBE;" horiz-adv-x="611" d="M398 730H458L229 -8H169L398 730ZM486 100H351V154L455 433H564V154H592V100H564V0H486V100ZM486 154V349H484L417 154H486ZM119 287Q87 287 67 293T36 311T20 345T15 396V409H93V391Q93 337 119 337Q147 337 147 391V437Q147 463 137 473T97 483H82V543H101Q127 543 136 552T145 589V635Q145 661 138 669T123 678Q109 678 102 665T95 628V615H17Q17 647 21 668T37 703Q49 717 70 722T123 728Q155 728 174 722T205 701T219 665T223 612Q223 584 221 567T212 539T193 523T160 515V513Q177 511 189 507T210 491T221 457T225 396Q225 366 221 345T205 312T173 293T119 287Z"  />
<glyph unicode="&#xBF;" horiz-adv-x="315" d="M161 -189Q119 -189 93 -181T53 -155T33 -112T27 -54Q27 -8 32 19T49 71L83 140Q93 160 103 184T117 232Q119 247 120 257T121 295V377H201V258Q201 241 201 231T201 214T199 202T197 189Q194 172 189 154T167 99L140 35Q130 11 125 -12T120 -61Q120 -97 127 -110T154 -123Q176 -123 183 -107T190 -72V-9H283V-51Q283 -85 279 -111T263 -154T226 -180T161 -189ZM108 540H214V439H108V540Z"  />
<glyph unicode="&#xC0;" horiz-adv-x="444" d="M333 0L296 186H145L111 0H10L170 722H285L433 0H333ZM223 616L161 267H282L223 616ZM128 913H229L296 772H235L128 913Z"  />
<glyph unicode="&#xC1;" horiz-adv-x="444" d="M333 0L296 186H145L111 0H10L170 722H285L433 0H333ZM223 616L161 267H282L223 616ZM246 913H346L238 772H177L246 913Z"  />
<glyph unicode="&#xC2;" horiz-adv-x="444" d="M333 0L296 186H145L111 0H10L170 722H285L433 0H333ZM223 616L161 267H282L223 616ZM189 913H267L365 772H287L225 858L164 772H89L189 913Z"  />
<glyph unicode="&#xC3;" horiz-adv-x="444" d="M333 0L296 186H145L111 0H10L170 722H285L433 0H333ZM223 616L161 267H282L223 616ZM82 774Q82 793 89 812T108 845T138 869T175 878Q189 878 201 875T228 865L265 849Q270 847 275 845T287 843Q304 843 311 857T321 885H372Q372 867 367 848T350 813T323 787T287 776Q273 776 261 780T237 789L193 807Q181 812 172 812Q156 812 145 800T133 772V769H82V774Z"  />
<glyph unicode="&#xC4;" horiz-adv-x="444" d="M333 0L296 186H145L111 0H10L170 722H285L433 0H333ZM223 616L161 267H282L223 616ZM106 883H186V785H106V883ZM267 883H348V785H267V883Z"  />
<glyph unicode="&#xC5;" horiz-adv-x="444" d="M333 0L296 186H145L111 0H10L170 722H285L433 0H333ZM223 616L161 267H282L223 616ZM224 756Q203 756 184 764T151 786T129 820T120 860Q120 881 128 900T151 933T184 955T224 963Q245 963 264 955T298 933T320 900T329 860Q329 839 321 820T298 787T265 764T224 756ZM224 800Q249 800 266 818T283 860Q283 884 266 901T224 919Q200 919 183 902T165 860Q165 836 182 818T224 800Z"  />
<glyph unicode="&#xC6;" horiz-adv-x="615" d="M599 722V641H372L391 412H592V331H398L421 81H604V0H333L318 186H163L109 0H8L232 722H599ZM284 629L188 268H310L284 629Z"  />
<glyph unicode="&#xC7;" horiz-adv-x="352" d="M176 -189Q154 -189 131 -185T88 -172L101 -138Q114 -145 131 -147T163 -150Q180 -150 193 -142T206 -111Q206 -91 194 -83T170 -74Q150 -74 133 -81L118 -65L159 -4Q26 9 26 154V514Q26 551 28 589T46 658T95 709T189 729Q340 729 340 593V526H246V567Q246 605 231 626T189 647Q165 647 152 632T133 596T127 552T126 510V207Q126 193 126 171T132 128T150 92T187 76Q243 76 243 165V209H339V135Q339 108 334 83T313 39T271 7T201 -6L177 -42Q185 -40 192 -39T208 -38Q238 -38 260 -56T283 -107Q283 -128 273 -143T248 -169T213 -184T176 -189Z"  />
<glyph unicode="&#xC8;" horiz-adv-x="315" d="M37 0V722H308V638H137V412H297V328H137V84H308V0H37ZM53 913H154L221 772H160L53 913Z"  />
<glyph unicode="&#xC9;" horiz-adv-x="315" d="M37 0V722H308V638H137V412H297V328H137V84H308V0H37ZM182 913H282L174 772H113L182 913Z"  />
<glyph unicode="&#xCA;" horiz-adv-x="315" d="M37 0V722H308V638H137V412H297V328H137V84H308V0H37ZM129 913H207L305 772H227L165 858L104 772H29L129 913Z"  />
<glyph unicode="&#xCB;" horiz-adv-x="315" d="M37 0V722H308V638H137V412H297V328H137V84H308V0H37ZM46 883H126V785H46V883ZM207 883H288V785H207V883Z"  />
<glyph unicode="&#xCC;" horiz-adv-x="168" d="M34 0V722H133V0H34ZM-39 913H62L129 772H68L-39 913Z"  />
<glyph unicode="&#xCD;" horiz-adv-x="168" d="M34 0V722H133V0H34ZM109 913H209L101 772H40L109 913Z"  />
<glyph unicode="&#xCE;" horiz-adv-x="168" d="M34 0V722H133V0H34ZM46 913H124L222 772H144L82 858L21 772H-54L46 913Z"  />
<glyph unicode="&#xCF;" horiz-adv-x="168" d="M34 0V722H133V0H34ZM-37 883H43V785H-37V883ZM124 883H205V785H124V883Z"  />
<glyph unicode="&#xD0;" horiz-adv-x="407" d="M37 328H0V412H37V722H212Q272 722 305 706T353 657T372 575T375 461V236Q375 178 370 134T345 60T288 15T186 0H37V328ZM184 84Q212 84 229 91T257 117T270 166T273 244V517Q273 554 269 578T255 615T225 633T175 638H138V412H204V328H138V84H184Z"  />
<glyph unicode="&#xD1;" horiz-adv-x="426" d="M254 0L126 615V0H37V722H178L300 123V722H391V0H254ZM68 774Q68 793 75 812T94 845T124 869T161 878Q175 878 187 875T214 865L251 849Q256 847 261 845T273 843Q290 843 297 857T307 885H358Q358 867 353 848T336 813T309 787T273 776Q259 776 247 780T223 789L179 807Q167 812 158 812Q142 812 131 800T119 772V769H68V774Z"  />
<glyph unicode="&#xD2;" horiz-adv-x="409" d="M372 168Q372 138 366 107T342 50T290 8T201 -8Q145 -8 112 8T62 50T40 111T34 180V537Q34 573 41 607T67 669T120 712T206 729Q255 729 287 715T338 676T364 622T372 559V168ZM274 530Q274 549 272 569T263 607T242 636T203 648Q181 648 168 638T146 611T135 576T132 540V160Q132 145 135 129T147 100T169 78T203 69Q225 69 239 79T260 104T271 135T274 165V530ZM80 913H181L248 772H187L80 913Z"  />
<glyph unicode="&#xD3;" horiz-adv-x="409" d="M372 168Q372 138 366 107T342 50T290 8T201 -8Q145 -8 112 8T62 50T40 111T34 180V537Q34 573 41 607T67 669T120 712T206 729Q255 729 287 715T338 676T364 622T372 559V168ZM274 530Q274 549 272 569T263 607T242 636T203 648Q181 648 168 638T146 611T135 576T132 540V160Q132 145 135 129T147 100T169 78T203 69Q225 69 239 79T260 104T271 135T274 165V530ZM229 913H329L221 772H160L229 913Z"  />
<glyph unicode="&#xD4;" horiz-adv-x="409" d="M372 168Q372 138 366 107T342 50T290 8T201 -8Q145 -8 112 8T62 50T40 111T34 180V537Q34 573 41 607T67 669T120 712T206 729Q255 729 287 715T338 676T364 622T372 559V168ZM274 530Q274 549 272 569T263 607T242 636T203 648Q181 648 168 638T146 611T135 576T132 540V160Q132 145 135 129T147 100T169 78T203 69Q225 69 239 79T260 104T271 135T274 165V530ZM166 913H244L342 772H264L202 858L141 772H66L166 913Z"  />
<glyph unicode="&#xD5;" horiz-adv-x="409" d="M372 168Q372 138 366 107T342 50T290 8T201 -8Q145 -8 112 8T62 50T40 111T34 180V537Q34 573 41 607T67 669T120 712T206 729Q255 729 287 715T338 676T364 622T372 559V168ZM274 530Q274 549 272 569T263 607T242 636T203 648Q181 648 168 638T146 611T135 576T132 540V160Q132 145 135 129T147 100T169 78T203 69Q225 69 239 79T260 104T271 135T274 165V530ZM59 774Q59 793 66 812T85 845T115 869T152 878Q166 878 178 875T205 865L242 849Q247 847 252 845T264 843Q281 843 288 857T298 885H349Q349 867 344 848T327 813T300 787T264 776Q250 776 238 780T214 789L170 807Q158 812 149 812Q133 812 122 800T110 772V769H59V774Z"  />
<glyph unicode="&#xD6;" horiz-adv-x="409" d="M372 168Q372 138 366 107T342 50T290 8T201 -8Q145 -8 112 8T62 50T40 111T34 180V537Q34 573 41 607T67 669T120 712T206 729Q255 729 287 715T338 676T364 622T372 559V168ZM274 530Q274 549 272 569T263 607T242 636T203 648Q181 648 168 638T146 611T135 576T132 540V160Q132 145 135 129T147 100T169 78T203 69Q225 69 239 79T260 104T271 135T274 165V530ZM83 883H163V785H83V883ZM244 883H325V785H244V883Z"  />
<glyph unicode="&#xD7;" horiz-adv-x="600" d="M43 502L105 562L300 367L496 562L556 502L361 307L556 111L496 50L300 245L105 50L43 111L239 307L43 502Z"  />
<glyph unicode="&#xD8;" horiz-adv-x="409" d="M64 47Q45 74 40 108T34 180V537Q34 573 41 607T67 669T120 712T206 729Q239 729 264 722T307 703L325 751L367 738L342 671Q359 647 365 618T372 559V168Q372 138 366 107T342 50T290 8T201 -8Q166 -8 141 -2T96 17L76 -37L37 -25L64 47ZM274 490L137 124Q143 102 158 86T203 69Q225 69 239 79T260 104T271 135T274 165V490ZM132 231L267 595Q261 618 247 633T203 648Q181 648 168 638T146 611T135 576T132 540V231Z"  />
<glyph unicode="&#xD9;" horiz-adv-x="407" d="M373 167Q373 134 365 103T338 48T285 10T201 -5Q155 -5 124 6T72 38T43 84T34 141V722H134V154Q134 119 149 97T204 74Q230 74 244 82T264 105T272 138T273 176V722H373V167H373ZM79 913H180L247 772H186L79 913Z"  />
<glyph unicode="&#xDA;" horiz-adv-x="407" d="M373 167Q373 134 365 103T338 48T285 10T201 -5Q155 -5 124 6T72 38T43 84T34 141V722H134V154Q134 119 149 97T204 74Q230 74 244 82T264 105T272 138T273 176V722H373V167H373ZM228 913H328L220 772H159L228 913Z"  />
<glyph unicode="&#xDB;" horiz-adv-x="407" d="M373 167Q373 134 365 103T338 48T285 10T201 -5Q155 -5 124 6T72 38T43 84T34 141V722H134V154Q134 119 149 97T204 74Q230 74 244 82T264 105T272 138T273 176V722H373V167H373ZM165 913H243L341 772H263L201 858L140 772H65L165 913Z"  />
<glyph unicode="&#xDC;" horiz-adv-x="407" d="M373 167Q373 134 365 103T338 48T285 10T201 -5Q155 -5 124 6T72 38T43 84T34 141V722H134V154Q134 119 149 97T204 74Q230 74 244 82T264 105T272 138T273 176V722H373V167H373ZM82 883H162V785H82V883ZM243 883H324V785H243V883Z"  />
<glyph unicode="&#xDD;" horiz-adv-x="407" d="M252 295V0H153V295L15 722H116L206 417L302 722H392L252 295ZM228 913H328L220 772H159L228 913Z"  />
<glyph unicode="&#xDE;" horiz-adv-x="389" d="M364 392Q364 339 359 302T338 240T293 205T217 194H137V0H37V722H137V601H210Q265 601 296 589T342 550T360 485T364 392ZM265 402Q265 439 263 461T254 496T234 513T197 517H137V278H185Q213 278 229 280T253 295T263 332T265 402Z"  />
<glyph unicode="&#xDF;" horiz-adv-x="352" d="M154 60Q175 54 199 54Q218 54 228 61T244 79T250 106T251 137Q251 159 248 180T236 222Q227 247 214 271T189 320T169 371T161 425Q161 452 171 475T200 519Q200 532 200 550T201 585V625Q201 641 192 650T168 659Q145 659 135 644T125 606V0H31V606Q31 672 67 702T167 732Q224 732 259 707T294 620V505Q294 494 286 487T271 471Q255 452 255 426Q255 403 264 381T282 338Q292 315 302 294T321 252T335 208T341 160V126Q341 102 338 81T327 43T302 13T260 -4Q249 -6 238 -6T216 -7Q200 -7 185 -6T154 -2V60Z"  />
<glyph unicode="&#xE0;" horiz-adv-x="335" d="M211 0V52Q202 42 194 32T175 13T150 0T117 -6Q96 -6 79 -2T50 17T32 59T25 131Q25 169 26 193T32 234T42 261T59 282Q67 291 76 296T100 306T139 311T205 313V394Q205 416 198 429T166 442Q146 442 136 433T126 400V354H32V399Q32 508 166 508Q231 508 265 480T299 386V0H211ZM205 247H175Q142 247 131 225T119 144Q119 116 120 100T126 74T137 63T156 60Q180 60 192 76T205 118V247ZM53 722H154L221 581H160L53 722Z"  />
<glyph unicode="&#xE1;" horiz-adv-x="335" d="M211 0V52Q202 42 194 32T175 13T150 0T117 -6Q96 -6 79 -2T50 17T32 59T25 131Q25 169 26 193T32 234T42 261T59 282Q67 291 76 296T100 306T139 311T205 313V394Q205 416 198 429T166 442Q146 442 136 433T126 400V354H32V399Q32 508 166 508Q231 508 265 480T299 386V0H211ZM205 247H175Q142 247 131 225T119 144Q119 116 120 100T126 74T137 63T156 60Q180 60 192 76T205 118V247ZM182 722H282L174 581H113L182 722Z"  />
<glyph unicode="&#xE2;" horiz-adv-x="335" d="M211 0V52Q202 42 194 32T175 13T150 0T117 -6Q96 -6 79 -2T50 17T32 59T25 131Q25 169 26 193T32 234T42 261T59 282Q67 291 76 296T100 306T139 311T205 313V394Q205 416 198 429T166 442Q146 442 136 433T126 400V354H32V399Q32 508 166 508Q231 508 265 480T299 386V0H211ZM205 247H175Q142 247 131 225T119 144Q119 116 120 100T126 74T137 63T156 60Q180 60 192 76T205 118V247ZM129 722H207L305 581H227L165 667L104 581H29L129 722Z"  />
<glyph unicode="&#xE3;" horiz-adv-x="335" d="M211 0V52Q202 42 194 32T175 13T150 0T117 -6Q96 -6 79 -2T50 17T32 59T25 131Q25 169 26 193T32 234T42 261T59 282Q67 291 76 296T100 306T139 311T205 313V394Q205 416 198 429T166 442Q146 442 136 433T126 400V354H32V399Q32 508 166 508Q231 508 265 480T299 386V0H211ZM205 247H175Q142 247 131 225T119 144Q119 116 120 100T126 74T137 63T156 60Q180 60 192 76T205 118V247ZM22 583Q22 602 29 621T48 654T78 678T115 687Q129 687 141 684T168 674L205 658Q210 656 215 654T227 652Q244 652 251 666T261 694H312Q312 676 307 657T290 622T263 596T227 585Q213 585 201 589T177 598L133 616Q121 621 112 621Q96 621 85 609T73 581V578H22V583Z"  />
<glyph unicode="&#xE4;" horiz-adv-x="335" d="M211 0V52Q202 42 194 32T175 13T150 0T117 -6Q96 -6 79 -2T50 17T32 59T25 131Q25 169 26 193T32 234T42 261T59 282Q67 291 76 296T100 306T139 311T205 313V394Q205 416 198 429T166 442Q146 442 136 433T126 400V354H32V399Q32 508 166 508Q231 508 265 480T299 386V0H211ZM205 247H175Q142 247 131 225T119 144Q119 116 120 100T126 74T137 63T156 60Q180 60 192 76T205 118V247ZM46 692H126V594H46V692ZM207 692H288V594H207V692Z"  />
<glyph unicode="&#xE5;" horiz-adv-x="335" d="M211 0V52Q202 42 194 32T175 13T150 0T117 -6Q96 -6 79 -2T50 17T32 59T25 131Q25 169 26 193T32 234T42 261T59 282Q67 291 76 296T100 306T139 311T205 313V394Q205 416 198 429T166 442Q146 442 136 433T126 400V354H32V399Q32 508 166 508Q231 508 265 480T299 386V0H211ZM205 247H175Q142 247 131 225T119 144Q119 116 120 100T126 74T137 63T156 60Q180 60 192 76T205 118V247ZM167 565Q146 565 127 573T94 595T72 629T63 669Q63 690 71 709T94 742T127 764T167 772Q188 772 207 764T241 742T263 709T272 669Q272 648 264 629T241 596T208 573T167 565ZM167 609Q192 609 209 627T226 669Q226 693 209 710T167 728Q143 728 126 711T108 669Q108 645 125 627T167 609Z"  />
<glyph unicode="&#xE6;" horiz-adv-x="483" d="M195 388Q195 397 194 406T190 424T181 437T162 442Q150 442 143 437T131 422T126 403T125 382V354H33V396Q33 447 64 477T146 508Q175 508 202 499T245 463Q260 486 283 497T334 508Q388 508 421 480T454 388V234H290V122Q290 111 290 100T295 78T306 62T328 56Q342 56 350 62T361 77T366 98T367 121V148H453V123Q453 96 448 73T429 31T392 3T331 -8Q302 -8 279 2T240 37Q225 11 201 2T147 -8Q105 -8 81 4T44 38T29 85T25 140Q25 171 27 199T43 249T86 284T168 297H195V388ZM365 297V382Q365 404 359 423T327 442Q313 442 306 436T296 419T292 397T291 373V297H365ZM174 234Q154 234 143 228T127 213T121 190T120 164V114Q120 103 120 93T124 74T135 61T155 55Q168 55 176 60T188 75T194 94T195 116V234H174Z"  />
<glyph unicode="&#xE7;" horiz-adv-x="296" d="M138 -189Q116 -189 93 -185T50 -172L63 -138Q76 -145 93 -147T125 -150Q142 -150 155 -142T168 -111Q168 -91 156 -83T132 -74Q112 -74 95 -81L80 -65L120 -5Q70 2 47 32T24 121V375Q24 508 158 508Q214 508 246 483T278 415V336H190V394Q190 410 184 426T155 443Q135 443 127 427T119 373V116Q119 85 127 72T154 59Q188 59 188 116V170H278V90Q278 45 246 21T162 -6L139 -42Q147 -40 154 -39T170 -38Q200 -38 222 -56T245 -107Q245 -128 235 -143T210 -169T175 -184T138 -189Z"  />
<glyph unicode="&#xE8;" horiz-adv-x="333" d="M304 96Q304 67 292 48T261 16T217 -1T168 -7Q97 -7 64 23T30 126V373Q30 445 67 476T173 508Q242 508 273 474T304 372V221H125V112Q125 56 171 56Q195 56 205 72T216 125V165H304V96ZM215 374Q215 416 206 431T170 447Q125 447 125 392V286H215V374ZM52 722H153L220 581H159L52 722Z"  />
<glyph unicode="&#xE9;" horiz-adv-x="333" d="M304 96Q304 67 292 48T261 16T217 -1T168 -7Q97 -7 64 23T30 126V373Q30 445 67 476T173 508Q242 508 273 474T304 372V221H125V112Q125 56 171 56Q195 56 205 72T216 125V165H304V96ZM215 374Q215 416 206 431T170 447Q125 447 125 392V286H215V374ZM181 722H281L173 581H112L181 722Z"  />
<glyph unicode="&#xEA;" horiz-adv-x="333" d="M304 96Q304 67 292 48T261 16T217 -1T168 -7Q97 -7 64 23T30 126V373Q30 445 67 476T173 508Q242 508 273 474T304 372V221H125V112Q125 56 171 56Q195 56 205 72T216 125V165H304V96ZM215 374Q215 416 206 431T170 447Q125 447 125 392V286H215V374ZM128 722H206L304 581H226L164 667L103 581H28L128 722Z"  />
<glyph unicode="&#xEB;" horiz-adv-x="333" d="M304 96Q304 67 292 48T261 16T217 -1T168 -7Q97 -7 64 23T30 126V373Q30 445 67 476T173 508Q242 508 273 474T304 372V221H125V112Q125 56 171 56Q195 56 205 72T216 125V165H304V96ZM215 374Q215 416 206 431T170 447Q125 447 125 392V286H215V374ZM45 692H125V594H45V692ZM206 692H287V594H206V692Z"  />
<glyph unicode="&#xEC;" horiz-adv-x="168" d="M37 0V500H131V0H37ZM-39 722H62L129 581H68L-39 722Z"  />
<glyph unicode="&#xED;" horiz-adv-x="168" d="M37 0V500H131V0H37ZM109 722H209L101 581H40L109 722Z"  />
<glyph unicode="&#xEE;" horiz-adv-x="168" d="M37 0V500H131V0H37ZM46 722H124L222 581H144L82 667L21 581H-54L46 722Z"  />
<glyph unicode="&#xEF;" horiz-adv-x="168" d="M37 0V500H131V0H37ZM-37 692H43V594H-37V692ZM124 692H205V594H124V692Z"  />
<glyph unicode="&#xF0;" horiz-adv-x="333" d="M167 -6Q140 -6 116 0T73 21T43 60T32 119V373Q32 437 66 472T161 508Q176 508 195 502T222 485Q221 514 214 544T192 599L120 564L94 605L163 639Q132 673 83 693L152 728Q201 708 231 672L300 706L325 665L258 632Q301 555 301 398V129Q301 65 266 30T167 -6ZM167 60Q189 60 198 76T207 123V379Q207 409 198 425T167 442Q144 442 135 426T126 379V123Q126 93 135 77T167 60Z"  />
<glyph unicode="&#xF1;" horiz-adv-x="333" d="M204 0V387Q204 416 196 427T169 438Q130 438 130 390V0H34V500H124V459Q143 485 163 496T211 508Q235 508 252 500T279 478T293 447T298 411V0H204ZM21 583Q21 602 28 621T47 654T77 678T114 687Q128 687 140 684T167 674L204 658Q209 656 214 654T226 652Q243 652 250 666T260 694H311Q311 676 306 657T289 622T262 596T226 585Q212 585 200 589T176 598L132 616Q120 621 111 621Q95 621 84 609T72 581V578H21V583Z"  />
<glyph unicode="&#xF2;" horiz-adv-x="333" d="M302 129Q302 -6 163 -6Q99 -6 66 28T32 130V377Q32 438 68 473T168 508Q231 508 266 476T302 378V129ZM208 374Q208 412 199 427T168 443Q126 443 126 380V121Q126 88 135 74T167 59Q189 59 198 76T208 135V374ZM52 722H153L220 581H159L52 722Z"  />
<glyph unicode="&#xF3;" horiz-adv-x="333" d="M302 129Q302 -6 163 -6Q99 -6 66 28T32 130V377Q32 438 68 473T168 508Q231 508 266 476T302 378V129ZM208 374Q208 412 199 427T168 443Q126 443 126 380V121Q126 88 135 74T167 59Q189 59 198 76T208 135V374ZM186 722H286L178 581H117L186 722Z"  />
<glyph unicode="&#xF4;" horiz-adv-x="333" d="M302 129Q302 -6 163 -6Q99 -6 66 28T32 130V377Q32 438 68 473T168 508Q231 508 266 476T302 378V129ZM208 374Q208 412 199 427T168 443Q126 443 126 380V121Q126 88 135 74T167 59Q189 59 198 76T208 135V374ZM128 722H206L304 581H226L164 667L103 581H28L128 722Z"  />
<glyph unicode="&#xF5;" horiz-adv-x="333" d="M302 129Q302 -6 163 -6Q99 -6 66 28T32 130V377Q32 438 68 473T168 508Q231 508 266 476T302 378V129ZM208 374Q208 412 199 427T168 443Q126 443 126 380V121Q126 88 135 74T167 59Q189 59 198 76T208 135V374ZM21 583Q21 602 28 621T47 654T77 678T114 687Q128 687 140 684T167 674L204 658Q209 656 214 654T226 652Q243 652 250 666T260 694H311Q311 676 306 657T289 622T262 596T226 585Q212 585 200 589T176 598L132 616Q120 621 111 621Q95 621 84 609T72 581V578H21V583Z"  />
<glyph unicode="&#xF6;" horiz-adv-x="333" d="M302 129Q302 -6 163 -6Q99 -6 66 28T32 130V377Q32 438 68 473T168 508Q231 508 266 476T302 378V129ZM208 374Q208 412 199 427T168 443Q126 443 126 380V121Q126 88 135 74T167 59Q189 59 198 76T208 135V374ZM45 692H125V594H45V692ZM206 692H287V594H206V692Z"  />
<glyph unicode="&#xF7;" horiz-adv-x="600" d="M241 390V509H356V390H241ZM44 225V308H556V225H44ZM241 23V142H356V23H241Z"  />
<glyph unicode="&#xF8;" horiz-adv-x="333" d="M21 -28L52 46Q32 76 32 130V377Q32 438 68 473T168 508Q208 508 239 494L260 545L294 532L269 473Q302 438 302 378V129Q302 -6 163 -6Q110 -6 78 17L54 -40L21 -28ZM208 327L126 132V121Q126 88 135 74T167 59Q189 59 198 76T208 135V327ZM126 223L204 411Q197 443 168 443Q126 443 126 380V223Z"  />
<glyph unicode="&#xF9;" horiz-adv-x="333" d="M209 0V40Q190 15 170 4T123 -7Q97 -7 80 1T52 23T38 57T34 98V500H128V113Q128 84 136 73T163 61Q203 61 203 111V500H297V0H209ZM52 722H153L220 581H159L52 722Z"  />
<glyph unicode="&#xFA;" horiz-adv-x="333" d="M209 0V40Q190 15 170 4T123 -7Q97 -7 80 1T52 23T38 57T34 98V500H128V113Q128 84 136 73T163 61Q203 61 203 111V500H297V0H209ZM181 722H281L173 581H112L181 722Z"  />
<glyph unicode="&#xFB;" horiz-adv-x="333" d="M209 0V40Q190 15 170 4T123 -7Q97 -7 80 1T52 23T38 57T34 98V500H128V113Q128 84 136 73T163 61Q203 61 203 111V500H297V0H209ZM128 722H206L304 581H226L164 667L103 581H28L128 722Z"  />
<glyph unicode="&#xFC;" horiz-adv-x="333" d="M209 0V40Q190 15 170 4T123 -7Q97 -7 80 1T52 23T38 57T34 98V500H128V113Q128 84 136 73T163 61Q203 61 203 111V500H297V0H209ZM45 692H125V594H45V692ZM206 692H287V594H206V692Z"  />
<glyph unicode="&#xFD;" horiz-adv-x="333" d="M164 -179H76L120 7L6 500H106L169 139L236 500H327L164 -179ZM191 722H291L183 581H122L191 722Z"  />
<glyph unicode="&#xFE;" horiz-adv-x="333" d="M127 452Q145 481 164 493T213 506Q301 506 301 376V120Q301 97 298 82T290 52Q280 26 258 10T206 -6Q164 -6 127 28V-184H33V722H127V452ZM206 364Q206 403 198 419T170 435Q151 435 139 420T127 380V118Q127 59 168 59Q188 59 197 75T206 127V364Z"  />
<glyph unicode="&#xFF;" horiz-adv-x="333" d="M164 -179H76L120 7L6 500H106L169 139L236 500H327L164 -179ZM45 692H125V594H45V692ZM206 692H287V594H206V692Z"  />
<glyph unicode="&#x131;" horiz-adv-x="168" d="M37 0V500H131V0H37Z"  />
<glyph unicode="&#x152;" horiz-adv-x="577" d="M545 637H377V412H538V328H377V81H545V0H237Q223 0 209 -1T181 -2Q166 -2 152 -1T123 5Q98 13 81 28T54 64T39 108T34 156V547Q34 572 37 598T51 647T78 688T121 716Q135 721 151 723T183 724L250 722H545V637ZM277 641Q253 644 227 644Q215 644 203 644T180 638Q166 632 157 621T143 594T137 563T135 534V165Q135 127 151 101T210 75Q227 75 244 77T277 81V641Z"  />
<glyph unicode="&#x153;" horiz-adv-x="491" d="M462 112Q462 55 430 24T340 -8Q283 -8 249 38Q231 12 204 2T148 -8Q94 -8 63 24T32 109V381Q32 439 63 473T154 508Q183 508 208 499T250 462Q270 487 294 497T347 508Q407 508 434 473T462 381V223H297V118Q297 107 298 96T303 75T315 59T336 53Q349 53 357 59T369 76T374 99T375 122V152H462V112ZM202 400Q202 419 194 432T165 446Q143 446 134 433T124 400V102Q124 84 132 70T161 56Q178 56 190 66T202 102V400ZM376 288V378Q376 389 375 401T370 422T358 438T336 445Q323 445 316 440T305 427T300 408T299 386V288H376Z"  />
<glyph unicode="&#x160;" horiz-adv-x="370" d="M343 171Q343 85 306 39T176 -7Q107 -7 67 27T26 121V209H123V155Q123 112 137 93T184 74Q205 74 217 81T236 100T245 127T248 160Q248 182 244 200T229 236T203 273T161 319L135 346Q111 371 91 394T57 442T35 496T27 562Q27 643 67 685T187 727Q226 727 254 717T300 689T326 647T335 594V528H241V569Q241 584 240 598T233 624T216 642T185 649Q124 649 124 571Q124 548 129 530T146 492T178 450T227 396L254 367Q282 336 299 312T327 266T340 222T343 171ZM147 772L47 913H122L183 827L245 913H323L225 772H147Z"  />
<glyph unicode="&#x161;" horiz-adv-x="296" d="M271 117Q271 51 239 23T139 -5Q83 -5 53 19T23 88V168H113V101Q113 78 121 69T147 59Q167 59 174 69T182 106V135Q182 148 180 158T172 177T154 198T123 226L93 252Q76 267 64 279T43 304T31 333T27 372Q27 406 33 432T54 474T93 499T155 508Q205 508 235 486T266 411V340H182V390Q182 419 174 431T148 444Q118 444 118 405V379Q118 364 124 351T139 327T159 307T181 288L213 261Q244 235 257 210T271 143V117H271ZM110 581L10 722H85L146 636L208 722H286L188 581H110Z"  />
<glyph unicode="&#x178;" horiz-adv-x="407" d="M252 295V0H153V295L15 722H116L206 417L302 722H392L252 295ZM85 883H165V785H85V883ZM246 883H327V785H246V883Z"  />
<glyph unicode="&#x17D;" horiz-adv-x="352" d="M10 0V90L235 638H38V722H336V637L109 84H341V0H10ZM148 772L48 913H123L184 827L246 913H324L226 772H148Z"  />
<glyph unicode="&#x17E;" horiz-adv-x="241" d="M11 0V90L144 428H11V500H231V416L95 72H231V0H11ZM82 581L-18 722H57L118 636L180 722H258L160 581H82Z"  />
<glyph unicode="&#x192;" horiz-adv-x="372" d="M331 653Q327 653 323 654Q320 654 317 654T312 655Q299 655 291 653T278 645T270 627T265 596L252 488H315L308 421H245L212 121Q204 46 200 7T195 -38Q192 -81 185 -109T165 -155T132 -179T81 -186Q70 -186 56 -185T33 -182L39 -117Q44 -119 48 -119T57 -119Q86 -119 93 -99T105 -30L154 421H94L101 488H161L163 509Q167 557 171 587T178 636T187 667T198 690Q217 724 266 724Q279 724 299 722T337 718L331 653Z"  />
<glyph unicode="&#x2C6;" horiz-adv-x="168" d="M46 722H124L222 581H144L82 667L21 581H-54L46 722Z"  />
<glyph unicode="&#x2C7;" horiz-adv-x="168" d="M46 581L-54 722H21L82 636L144 722H222L124 581H46Z"  />
<glyph unicode="&#x2DA;" horiz-adv-x="168" d="M83 565Q62 565 43 573T10 595T-12 629T-21 669Q-21 690 -13 709T10 742T43 764T83 772Q104 772 123 764T157 742T179 709T188 669Q188 648 180 629T157 596T124 573T83 565ZM83 609Q108 609 125 627T142 669Q142 693 125 710T83 728Q59 728 42 711T24 669Q24 645 41 627T83 609Z"  />
<glyph unicode="&#x2DC;" horiz-adv-x="168" d="M-61 583Q-61 602 -54 621T-35 654T-5 678T32 687Q46 687 58 684T85 674L122 658Q127 656 132 654T144 652Q161 652 168 666T178 694H229Q229 676 224 657T207 622T180 596T144 585Q130 585 118 589T94 598L50 616Q38 621 29 621Q13 621 2 609T-10 581V578H-61V583Z"  />
<glyph unicode="&#x2013;" horiz-adv-x="500" d="M0 220V286H500V220H0Z"  />
<glyph unicode="&#x2014;" horiz-adv-x="1000" d="M0 220V286H1000V220H0Z"  />
<glyph unicode="&#x2018;" horiz-adv-x="186" d="M133 542H29L90 722H157L133 542Z"  />
<glyph unicode="&#x2019;" horiz-adv-x="186" d="M97 542H30L53 722H157L97 542Z"  />
<glyph unicode="&#x201A;" horiz-adv-x="186" d="M97 -62H30L53 118H157L97 -62Z"  />
<glyph unicode="&#x201C;" horiz-adv-x="278" d="M244 542H140L200 722H267L244 542ZM114 542H11L71 722H137L114 542Z"  />
<glyph unicode="&#x201D;" horiz-adv-x="278" d="M207 542H141L164 722H267L207 542ZM78 542H11L34 722H138L78 542Z"  />
<glyph unicode="&#x201E;" horiz-adv-x="278" d="M207 -62H141L164 118H267L207 -62ZM78 -62H11L34 118H138L78 -62Z"  />
<glyph unicode="&#x2020;" horiz-adv-x="370" d="M229 474V0H141V474H18V559H141V722H229V559H353V474H229Z"  />
<glyph unicode="&#x2021;" horiz-adv-x="370" d="M229 184V0H141V184H18V265H141V474H18V556H141V722H229V556H353V474H229V265H353V184H229Z"  />
<glyph unicode="&#x2022;" horiz-adv-x="501" d="M428 356Q428 319 414 287T376 230T320 192T250 178Q213 178 181 192T124 230T86 286T72 356Q72 393 86 425T124 482T180 520T250 534Q287 534 319 520T376 482T414 426T428 356Z"  />
<glyph unicode="&#x2026;" horiz-adv-x="1000" d="M109 119H224V0H109V119ZM442 119H557V0H442V119ZM776 119H891V0H776V119Z"  />
<glyph unicode="&#x2030;" horiz-adv-x="852" d="M825 94Q825 45 804 20T728 -5Q634 -5 634 76V371Q634 416 657 436T731 456Q782 456 803 433T825 355V94ZM759 356Q759 381 753 391T730 401Q710 401 705 388T700 358V98Q700 70 707 60T731 49Q746 49 752 60T759 98V356ZM581 94Q581 45 560 20T484 -5Q390 -5 390 76V371Q390 416 413 436T487 456Q538 456 559 433T581 355V94ZM515 356Q515 381 509 391T486 401Q466 401 461 388T456 358V98Q456 70 463 60T487 49Q502 49 508 60T515 98V356ZM220 364Q220 315 199 290T123 265Q29 265 29 346V641Q29 686 52 706T126 726Q177 726 198 703T220 625V364ZM154 626Q154 651 148 661T125 671Q105 671 100 658T95 628V368Q95 340 102 330T126 319Q141 319 147 330T154 368V626ZM222 0H157L387 722H453L222 0Z"  />
<glyph unicode="&#x2039;" horiz-adv-x="204" d="M106 58L26 256L106 453H178L118 256L178 58H106Z"  />
<glyph unicode="&#x203A;" horiz-adv-x="204" d="M99 58H26L87 256L26 453H99L178 256L99 58Z"  />
<glyph unicode="&#x20AC;" horiz-adv-x="372" d="M342 614Q333 625 323 632T300 645Q275 656 245 656Q231 656 217 652T191 634Q182 621 180 603T178 566V478H314L298 412H178V326H279L263 260H178V138Q178 124 180 110T193 84Q204 72 217 69T245 66Q262 66 275 69T305 81Q335 97 352 121V29Q344 23 332 17T308 5Q293 0 276 -3T241 -6Q204 -6 173 1T122 28Q108 42 100 60T89 98T85 137T84 172V260H10L26 326H84V412H10L26 478H84V550Q84 567 84 586T88 623T99 659T121 692Q145 716 176 722T238 728Q258 728 275 726T312 718Q326 713 338 708T362 692L342 614Z"  />
<glyph unicode="&#x2122;" horiz-adv-x="990" d="M758 366V664L651 366H601L494 664V366H437V722H531L627 460L723 722H815V366H758ZM260 671V366H197V671H80V722H377V671H260Z"  />

</font>
</defs>
</svg>
