<?xml version="1.0" standalone="no"?>
<!DOCTYPE svg PUBLIC "-//W3C//DTD SVG 1.1//EN" "http://www.w3.org/Graphics/SVG/1.1/DTD/svg11.dtd" >
<svg xmlns="http://www.w3.org/2000/svg">
<metadata></metadata>
<defs>
<font id="motohebregular" horiz-adv-x="0" >
<font-face units-per-em="1000" ascent="800" descent="-200" />
<missing-glyph horiz-adv-x="222" />
<glyph unicode="&#xd;" horiz-adv-x="222" />
<glyph unicode=" "  horiz-adv-x="222" />
<glyph unicode="&#x09;" horiz-adv-x="222" />
<glyph unicode="&#xa0;" horiz-adv-x="222" />
<glyph unicode="!" horiz-adv-x="318" d="M206 621l-17 -477h-62l-15 477h94zM200 89v-89h-81v89h81z" />
<glyph unicode="&#x22;" horiz-adv-x="250" d="M95 722v-207h-60v207h60zM215 722v-207h-60v207h60z" />
<glyph unicode="#" horiz-adv-x="381" d="M361 597l-62 -201h88l-15 -49h-88l-30 -98h89l-15 -48h-88l-62 -201h-44l62 201h-69l-64 -201h-44l63 201h-85l15 48h85l30 98h-87l15 49h86l62 201h44l-63 -201h71l61 201h45zM240 347h-69l-30 -98h69z" />
<glyph unicode="$" horiz-adv-x="444" d="M239 659v-51q86 -1 127.5 -46t41.5 -130h-87q1 48 -16.5 76t-65.5 31v-199q81 -37 110 -61.5t44.5 -54t15.5 -71.5q0 -77 -49.5 -121.5t-120.5 -44.5v-51h-37v51q-82 0 -125.5 47.5t-43.5 127.5q0 8 1 20h81q0 -24 4.5 -46t15 -39t27 -28t40.5 -13v217q-63 30 -95 56 t-45.5 55.5t-13.5 61.5q0 36 12 66t33 51.5t49 33t60 11.5v51h37zM202 539q-32 -5 -52 -27t-20 -58q0 -34 20 -56.5t52 -38.5v180zM239 56q38 5 63.5 28.5t25.5 65.5q0 35 -25.5 60t-63.5 44v-198z" />
<glyph unicode="%" horiz-adv-x="688" d="M518 647l-295 -683h-54l293 683h56zM180 629q39 0 61 -14.5t33 -38t13.5 -53.5t2.5 -60q0 -31 -2.5 -60.5t-13.5 -52.5t-33 -36.5t-61 -13.5t-61 13.5t-33 36.5t-13.5 52.5t-2.5 60.5q0 30 2.5 60t13.5 53.5t33 38t61 14.5zM180 581q-19 0 -29 -7t-14.5 -21.5t-5.5 -36.5 t-1 -51q0 -30 1 -52t5.5 -36.5t14.5 -21.5t29 -7t29 7t14.5 21.5t5.5 36.5t1 52q0 29 -1 51t-5.5 36.5t-14.5 21.5t-29 7zM508 311q39 0 61 -14.5t33 -38.5t13.5 -53.5t2.5 -59.5q0 -31 -2.5 -60.5t-13.5 -52.5t-33 -36.5t-61 -13.5t-61 13.5t-33 37t-13.5 52.5t-2.5 60 q0 30 2.5 59.5t13.5 53.5t33 38.5t61 14.5zM508 262q-19 0 -29 -7t-14.5 -21.5t-5.5 -36t-1 -51.5q0 -29 1 -51t5.5 -36.5t14.5 -21.5t29 -7t29 7t14.5 21.5t5.5 36.5t1 51q0 30 -1 51.5t-5.5 36t-14.5 21.5t-29 7z" />
<glyph unicode="&#x26;" horiz-adv-x="632" d="M450 58q-40 -34 -84.5 -51.5t-98.5 -17.5q-44 0 -83 13t-68.5 37.5t-47 60.5t-17.5 82q1 57 31 101.5t75 77.5q-16 21 -27.5 46t-11.5 52q0 35 13 61.5t34.5 44.5t51 27t62.5 9q35 0 67.5 -7.5t64.5 -20.5v-72q-28 15 -60 26.5t-64 11.5q-36 0 -64.5 -19.5t-29.5 -59.5 q0 -24 16.5 -48t43.5 -50l201 -206q24 37 36.5 77t14.5 84h74q-5 -55 -27 -107t-56 -97l111 -113h-100zM197 318q-29 -25 -49.5 -58.5t-20.5 -72.5q0 -31 12 -56t32 -42t47 -26.5t56 -9.5q75 0 133 50z" />
<glyph unicode="'" horiz-adv-x="250" d="M155 722v-207h-60v207h60z" />
<glyph unicode="(" horiz-adv-x="239" d="M181 650q-23 -93 -40 -190t-17 -193q1 -95 16.5 -186t37.5 -182h-50q-15 46 -29.5 91.5t-27 91.5t-20.5 93t-8 95q0 49 8 97t20.5 95.5t27.5 94t30 93.5h52z" />
<glyph unicode=")" horiz-adv-x="239" d="M110 650q15 -47 30 -93.5t27.5 -94t20.5 -95.5t8 -97q0 -48 -8 -95t-20.5 -93.5t-27.5 -92t-29 -90.5h-50q22 91 37.5 182.5t16.5 185.5q0 97 -17 194.5t-40 188.5h52z" />
<glyph unicode="*" horiz-adv-x="382" d="M247 634l51 -29l-78 -110l134 11v-57l-134 13l78 -112l-49 -28l-58 124l-58 -124l-50 28l79 112l-134 -13v57l134 -11l-78 110l51 29l56 -122z" />
<glyph unicode="+" horiz-adv-x="430" d="M242 434v-190h151v-53h-151v-191h-54v191h-151v53h151v190h54z" />
<glyph unicode="," horiz-adv-x="222" d="M189 104l-91 -231h-64l52 231h103z" />
<glyph unicode="-" horiz-adv-x="333" d="M276 311v-77h-220v77h220z" />
<glyph unicode="." horiz-adv-x="222" d="M158 104v-104h-94v104h94z" />
<glyph unicode="/" horiz-adv-x="278" d="M278 722l-235 -818h-67l235 818h67z" />
<glyph unicode="0" horiz-adv-x="380" d="M190 597q59 0 92.5 -25t48 -69.5t16.5 -98t2 -113.5q0 -66 -2.5 -116t-17 -94t-48 -69t-91.5 -25q-60 1 -92.5 25.5t-47.5 68t-17.5 98t-2.5 112.5q0 60 2 112.5t16 97.5t48.5 70.5t93.5 25.5zM267 276q0 59 -1 106t-8.5 80t-23 50.5t-44.5 17.5t-45 -17.5t-23.5 -51.5 t-8.5 -80t-1 -105v-18q0 -36 1 -72t8 -64.5t23 -47.5t46 -19q29 0 45 18.5t23 47.5t8 65t1 72v18z" />
<glyph unicode="1" horiz-adv-x="380" d="M249 588v-588h-81v498l-88 -59v79q15 7 52 33.5t48 36.5h69z" />
<glyph unicode="2" horiz-adv-x="380" d="M32 434q-5 75 31.5 118.5t112.5 44.5q80 0 119 -37.5t39 -117.5q0 -38 -7.5 -68t-23 -59t-39.5 -61t-57 -73q-63 -77 -89 -111h231v-70h-319v70q27 38 75.5 103t74 102t41.5 66t23.5 55.5t7.5 56.5q0 35 -17.5 56t-52.5 21q-33 0 -50 -23t-16 -73h-84z" />
<glyph unicode="3" horiz-adv-x="380" d="M35 434q-4 76 34 119.5t120 43.5q75 0 117.5 -38t42.5 -115q0 -40 -13 -65.5t-31 -40t-37 -21t-33 -10.5q68 -11 94 -47t26 -103q0 -85 -45 -127.5t-130 -42.5q-55 0 -88.5 19.5t-50 53.5t-15.5 95v8h82q0 -22 3 -41.5t11 -34.5t23.5 -23.5t41.5 -8.5q46 0 66 27t20 76 q0 35 -7 57.5t-22 35t-38.5 17.5t-57.5 5v70q53 -5 85.5 17.5t33.5 78.5q0 40 -18 65t-60 26q-23 0 -37.5 -8.5t-22 -22t-10 -30.5t-2.5 -35h-82z" />
<glyph unicode="4" horiz-adv-x="380" d="M292 588v-376h69v-70h-69v-142h-76v142h-197v69l166 377h107zM216 212l-2 293l-123 -293h125z" />
<glyph unicode="5" horiz-adv-x="380" d="M321 588v-70h-195l2 -163q13 16 38.5 26t51.5 10q64 0 94.5 -47.5t30.5 -150.5q0 -38 -4.5 -73t-20.5 -65.5t-48 -48.5t-88 -19q-47 0 -75.5 12t-44 32t-21 46.5t-5.5 56.5h81q0 -37 16 -62t52 -26q27 0 42 12t22.5 30.5t9.5 41.5t2 44q0 31 -1.5 59t-8.5 48t-22 32 t-41 12q-29 0 -47 -19.5t-23 -49.5h-74v332h277z" />
<glyph unicode="6" horiz-adv-x="380" d="M257 452q0 15 -4 30.5t-12 28t-20.5 20t-29.5 7.5q-23 0 -37.5 -10.5t-23.5 -34t-12.5 -62t-2.5 -95.5q33 46 94 47q28 0 53.5 -9t45 -31.5t31 -61t11.5 -96.5q0 -39 -8.5 -75t-27.5 -63.5t-49 -43.5t-73 -16q-58 0 -92 25.5t-49 69t-17.5 97.5t-2.5 112q0 60 2 111.5 t16.5 97.5t48 71t94.5 26q33 0 60.5 -10t47 -28.5t30 -45.5t9.5 -61h-82zM191 317q-25 0 -40 -12.5t-23 -31t-10.5 -41t-2.5 -41.5q0 -22 2.5 -46t10.5 -44t24.5 -33t43.5 -13q23 0 37 12t22 32t10.5 46t2.5 54q0 20 -3 41t-11 38t-23.5 28t-39.5 11z" />
<glyph unicode="7" horiz-adv-x="380" d="M349 588v-69l-155 -519h-92l163 518h-223v70h307z" />
<glyph unicode="8" horiz-adv-x="380" d="M190 597q69 0 110.5 -39t41.5 -109q0 -51 -25 -89t-76 -49q32 -4 52.5 -17t32.5 -33.5t17 -47t5 -55.5q0 -79 -40.5 -125t-117.5 -46q-76 0 -117.5 46t-41.5 125q0 29 4.5 55t16 47t32 34.5t52.5 17.5q-50 13 -74.5 50.5t-24.5 86.5q0 69 41.5 108.5t111.5 39.5zM190 538 q-34 0 -52.5 -26t-18.5 -61q0 -48 19.5 -76t51.5 -28t51 28t19 76q0 36 -18.5 61.5t-51.5 25.5zM190 277q-39 0 -58 -27t-19 -92q0 -49 21 -76t56 -27q36 0 55.5 27t20.5 76q0 65 -19 92t-57 27z" />
<glyph unicode="9" horiz-adv-x="380" d="M124 142q0 -42 17.5 -64.5t47.5 -22.5q27 0 42.5 14.5t23 43t9.5 70t1 95.5q-16 -26 -40 -37t-58 -11q-21 0 -43 7t-43 25.5t-36 56t-15 97.5q0 50 13.5 84t35.5 55.5t51 31.5t59 10q59 0 92.5 -24.5t48.5 -70t17 -98.5t2 -113t-2.5 -113.5t-17.5 -97t-48.5 -68.5 t-91.5 -25q-67 0 -107.5 42.5t-39.5 112.5h82zM189 538q-24 0 -39.5 -11.5t-23.5 -29t-11 -39t-3 -41.5q0 -21 2.5 -42t11 -39t23.5 -28.5t40 -10.5q24 0 39 10.5t23.5 29t11 39t2.5 41.5q0 20 -3 41.5t-11 39t-23 29t-39 11.5z" />
<glyph unicode=":" horiz-adv-x="222" d="M158 438v-104h-94v104h94zM158 104v-104h-94v104h94z" />
<glyph unicode=";" horiz-adv-x="222" d="M158 438v-104h-94v104h94zM189 104l-91 -231h-64l52 231h103z" />
<glyph unicode="&#x3c;" horiz-adv-x="500" d="M459 515v-73l-339 -189l339 -193v-73l-417 234v64z" />
<glyph unicode="=" horiz-adv-x="430" d="M393 330v-53h-356v53h356zM393 161v-54h-356v54h356z" />
<glyph unicode="&#x3e;" horiz-adv-x="500" d="M41 515l417 -230v-64l-417 -234v73l339 193l-339 189v73z" />
<glyph unicode="?" horiz-adv-x="399" d="M55 457v14q0 36 8 66t26 51.5t46.5 33.5t69.5 12q66 0 103 -39t37 -105q0 -51 -17 -89t-38.5 -64.5t-40 -51.5t-18.5 -48v-80h-71v98q0 26 15.5 51.5t35.5 51.5t36.5 60t16.5 74q0 14 -3.5 29t-11.5 27.5t-20 20t-29 7.5q-21 0 -34 -10.5t-19.5 -26.5t-8.5 -35t-2 -36 v-11h-81zM236 89v-89h-81v89h81z" />
<glyph unicode="@" horiz-adv-x="810" d="M637 -62q-49 -38 -107 -58.5t-119 -20.5q-76 0 -141.5 27t-113.5 75t-75.5 113t-27.5 141t28.5 141t77.5 112.5t115.5 74.5t141.5 27q66 0 126.5 -22.5t107.5 -63.5t75 -98t28 -126q0 -55 -17 -97t-48.5 -70.5t-75 -43.5t-95.5 -16v61q-24 -31 -55.5 -45t-70.5 -14 q-38 0 -66.5 14.5t-48 39t-29 56.5t-9.5 67t9.5 67t29 57t48 39.5t66.5 14.5q39 0 70.5 -14t55.5 -45v51h56v-291q33 5 56 20t38 37.5t22 51t7 58.5q0 58 -23 105t-61.5 80.5t-89 51.5t-105.5 18q-64 0 -120 -22.5t-98 -62t-66 -94t-24 -119.5q0 -64 23.5 -119t64 -95 t95.5 -62.5t119 -22.5q51 0 100 17t90 49zM406 333q-27 0 -46.5 -9.5t-32.5 -26t-19.5 -38.5t-6.5 -47t6.5 -47t19.5 -38.5t33 -26t47 -9.5t46.5 9.5t32.5 26t19 38.5t6 47t-6.5 47t-19.5 38.5t-32.5 26t-46.5 9.5z" />
<glyph unicode="[" horiz-adv-x="278" d="M236 756v-56h-84v-762h87v-56h-169v874h166z" />
<glyph unicode="\" horiz-adv-x="278" d="M66 722l212 -737h-67l-212 737h67z" />
<glyph unicode="]" horiz-adv-x="278" d="M208 756v-874h-169v56h87v762h-84v56h166z" />
<glyph unicode="^" horiz-adv-x="679" d="M378 590l215 -220h-80l-174 156l-174 -156h-79l215 220h77z" />
<glyph unicode="_" horiz-adv-x="405" d="M413 -134v-57h-421v57h421z" />
<glyph unicode="`" horiz-adv-x="405" d="M145 648l112 -148h-61l-129 148h78z" />
<glyph unicode="{" horiz-adv-x="274" d="M97 626q-1 37 12.5 66.5t37 43t48 17t46.5 3.5h25v-56q-47 0 -67 -19.5t-20 -70.5v-153q0 -24 -4 -43.5t-15.5 -35t-31.5 -26t-51 -16.5v-2q31 -7 52 -19.5t32 -31t14.5 -39.5t3.5 -48v-172q0 -21 3.5 -37t13.5 -28t27 -18t43 -6v-56q-50 -2 -83 6t-52 25.5t-26.5 46 t-7.5 69.5v197q0 25 -6.5 38.5t-20 21.5t-63.5 24v56q43 8 66.5 24.5t23.5 52.5v186z" />
<glyph unicode="|" horiz-adv-x="250" d="M156 750v-1000h-62v1000h62z" />
<glyph unicode="}" horiz-adv-x="274" d="M7 756h25q22 0 46.5 -3.5t46.5 -16t36.5 -39t14.5 -71.5v-186q0 -36 23.5 -52.5t66.5 -24.5v-56q-53 -17 -65 -25t-18.5 -21t-6.5 -38v-197q0 -41 -7.5 -69.5t-26.5 -46.5t-53 -25.5t-82 -5.5v56q48 0 67.5 21t19.5 68v172q0 27 3.5 48.5t15 40t31.5 30.5t52 19v2 q-32 6 -51.5 16.5t-31 26t-15.5 35t-4 43.5v153q0 50 -19.5 70t-67.5 20v56z" />
<glyph unicode="~" horiz-adv-x="679" d="M86 255q35 27 70.5 42.5t80.5 16.5q42 0 107.5 -27t106.5 -27q42 1 76.5 19t65.5 44v-70q-35 -27 -71 -42.5t-80 -15.5q-42 0 -107.5 26.5t-107.5 26.5q-38 0 -74 -18t-67 -45v70z" />
<glyph unicode="&#xa2;" horiz-adv-x="444" d="M325 569l35 -15l-26 -64q64 -41 59 -147h-85q0 18 -1.5 34t-6.5 29l-133 -321q23 -29 71 -29q19 0 33 9.5t22.5 25.5t13 36t4.5 41h86q0 -42 -14 -75.5t-36.5 -56.5t-51 -35t-57.5 -12q-28 0 -53.5 4t-48.5 16l-28 -67l-37 16l31 75q-26 28 -41 78t-15 134 q0 55 5.5 104.5t25 86t57.5 58t104 21.5q34 0 61 -9zM271 439q-12 9 -33 9q-24 0 -43.5 -7t-33.5 -25.5t-21.5 -51t-7.5 -84.5q0 -48 2.5 -84t8.5 -62h2z" />
<glyph unicode="&#xa3;" horiz-adv-x="444" d="M76 499q0 4 -0.5 11.5t-0.5 18.5q0 22 5 52t23.5 58t55 46.5t98.5 19.5q86 0 133 -47.5t42 -132.5h-96q1 21 -2.5 39.5t-12.5 33t-24.5 22.5t-40.5 8q-32 0 -49.5 -9.5t-26 -25.5t-10.5 -36t-2 -40v-14v-85h138v-80h-138v-258h260v-80h-426v80h74v258h-80v80h80v81z" />
<glyph unicode="&#xa4;" horiz-adv-x="444" d="M87 504q31 26 66 37.5t73 11.5q37 0 69 -13t62 -36l40 43l47 -53l-38 -43q22 -37 32 -73.5t10 -82.5q0 -42 -11 -75t-31 -68l38 -42l-47 -53l-40 43q-61 -50 -139 -50q-38 0 -69.5 13.5t-61.5 36.5l-39 -43l-47 53l39 42q-22 35 -32.5 70t-10.5 78q0 45 10 80t33 71 l-39 43l47 53zM226 486q-35 0 -62.5 -14.5t-46.5 -39.5t-28.5 -59t-9.5 -73q0 -36 10 -69.5t28.5 -58.5t44.5 -40t58 -15q34 0 61 14.5t46 40t29 59.5t10 72q0 36 -9.5 69t-27.5 58.5t-44 40.5t-59 15z" />
<glyph unicode="&#xa5;" horiz-adv-x="444" d="M447 694l-160 -362h91v-67h-116v-66h116v-67h-116v-132h-82v132h-114v67h114v66h-114v67h89l-157 362h97l130 -321l134 321h88z" />
<glyph unicode="&#xa6;" horiz-adv-x="250" d="M156 675v-350h-62v350h62zM156 175v-350h-62v350h62z" />
<glyph unicode="&#xa7;" horiz-adv-x="444" d="M69 91q31 -11 46 -16t36.5 -9t46.5 -4q17 0 34 3.5t31 12t22.5 21t8.5 30.5q0 26 -17.5 43t-44.5 27.5t-59 21t-57.5 24t-43 37.5t-17.5 61q0 25 8.5 44.5t22.5 35t32.5 27.5t39.5 22q-42 18 -66 46t-24 72q0 39 15.5 67t40 45.5t55.5 26t62 8.5q60 0 114 -19v-84 q-26 9 -53.5 17.5t-55.5 8.5q-14 0 -29 -4t-27 -11.5t-20 -19.5t-8 -28q0 -24 15.5 -40t40 -26.5t54 -21t54 -24t40.5 -36.5t16 -58q0 -46 -30 -81.5t-73 -49.5v-2q22 -5 42 -15.5t35 -26t23.5 -35t8.5 -43.5q0 -41 -15.5 -70t-41.5 -47.5t-59.5 -27t-70.5 -8.5 q-33 0 -66.5 5.5t-65.5 14.5v86zM214 450q-6 -2 -19 -8.5t-25.5 -16.5t-22.5 -25t-10 -36t6.5 -33.5t18 -20.5t25.5 -13.5t30 -12.5q8 2 22 8.5t27.5 18t23.5 27t10 35.5q0 21 -10 34.5t-23.5 21t-28 12.5t-24.5 9z" />
<glyph unicode="&#xa8;" horiz-adv-x="405" d="M165 614v-80h-80v80h80zM320 614v-80h-80v80h80z" />
<glyph unicode="&#xa9;" horiz-adv-x="628" d="M314 540q57 0 106 -19t84.5 -54.5t56 -86.5t20.5 -115q0 -65 -20.5 -116t-56 -86t-84.5 -54t-106 -19t-106 18.5t-84.5 53.5t-56 86t-20.5 117q0 64 20.5 115t56 86.5t84.5 54.5t106 19zM314 482q-44 0 -81.5 -15t-65 -42.5t-43 -68t-15.5 -91.5t15.5 -91t43 -68t65 -43 t81.5 -15t81.5 15t65 43t43 68.5t15.5 90.5t-15.5 90.5t-43 68.5t-65 43t-81.5 15zM404 353q-13 5 -32 10t-38 5q-38 1 -53.5 -25t-15.5 -76q0 -32 6 -51.5t15.5 -30.5t21 -15t22.5 -4t23.5 2t24.5 5t26 7v-53q-11 -4 -22.5 -7t-24.5 -5t-27 -2q-19 0 -41.5 6t-42 22.5 t-32.5 47t-13 78.5q0 74 37 113t96 39q19 0 37.5 -4.5t32.5 -10.5v-51z" />
<glyph unicode="&#xab;" horiz-adv-x="444" d="M200 466l-79 -196l78 -193h-78l-90 193l93 196h76zM372 466l-79 -196l78 -193h-78l-90 193l93 196h76z" />
<glyph unicode="&#xac;" horiz-adv-x="500" d="M457 384v-267h-62v205h-352v62h414z" />
<glyph unicode="&#xad;" horiz-adv-x="333" d="M276 311v-77h-220v77h220z" />
<glyph unicode="&#xae;" horiz-adv-x="628" d="M314 540q57 0 106 -19t84.5 -54.5t56 -86.5t20.5 -115q0 -65 -20.5 -116t-56 -86t-84.5 -54t-106 -19t-106 18.5t-84.5 53.5t-56 86t-20.5 117q0 64 20.5 115t56 86.5t84.5 54.5t106 19zM314 482q-44 0 -81.5 -15t-65 -43t-43 -68t-15.5 -91t15.5 -91t43 -68t65 -43 t81.5 -15t81.5 15t65 43t43 68.5t15.5 90.5t-15.5 90.5t-43 68.5t-65 43t-81.5 15zM299 414q21 0 41.5 -3t37 -12t26.5 -26t10 -45q0 -30 -14 -47.5t-36 -26.5l59 -127h-69q-18 50 -44 111h-23v-111h-60v287h72zM287 280q42 3 54.5 13t12.5 35t-10.5 32t-44.5 7h-12v-87z " />
<glyph unicode="&#xaf;" horiz-adv-x="1000" />
<glyph unicode="&#xb0;" horiz-adv-x="400" d="M200 705q31 0 58 -12t47.5 -32.5t32.5 -47.5t12 -58t-12 -58.5t-32.5 -47.5t-47.5 -32t-58 -12t-58.5 12t-47.5 32t-32 47.5t-12 58.5t11.5 58t32 47.5t48 32.5t58.5 12zM199 643q-18 0 -34 -7t-28 -19t-18.5 -28t-6.5 -34q0 -37 25.5 -62.5t62.5 -25.5q36 0 62 25.5 t26 62.5q0 18 -7 34t-19 28t-28.5 19t-34.5 7z" />
<glyph unicode="&#xb1;" horiz-adv-x="500" d="M281 505v-162h176v-62h-176v-162h-62v162h-176v62h176v162h62zM457 62v-62h-414v62h414z" />
<glyph unicode="&#xb2;" horiz-adv-x="229" d="M13 504q-1 8 -1 11q0 40 25.5 65.5t69.5 25.5q58 0 84.5 -22.5t26.5 -70.5q0 -30 -8 -52.5t-25 -46t-42.5 -53t-60.5 -73.5h138v-45h-209v45q43 53 71 87t45 58t24 42.5t7 39.5q0 19 -11.5 31t-36.5 12q-21 -1 -28.5 -16t-7.5 -34v-4h-61z" />
<glyph unicode="&#xb3;" horiz-adv-x="229" d="M8 508q-1 9 -1 12q0 41 24.5 63t75.5 23q51 0 80.5 -23.5t29.5 -69.5q0 -32 -18 -53t-63 -30v-2q89 -10 89 -90q-1 -53 -34.5 -78t-89.5 -25q-35 0 -55 10.5t-30 25.5t-12.5 31.5t-2.5 27.5v11h55q0 -25 10 -41t40 -17q32 0 45.5 14.5t13.5 41.5q0 40 -19 55t-64 15v42 q35 -3 55 12.5t20 46.5q0 24 -12 38.5t-38 14.5q-24 0 -34.5 -13t-10.5 -37v-5h-54z" />
<glyph unicode="&#xb4;" horiz-adv-x="405" d="M336 648l-129 -149h-60l110 149h79z" />
<glyph unicode="&#xb6;" horiz-adv-x="515" d="M428 590v-668h-56v620h-75v-620h-57v335q-38 3 -70.5 14.5t-56.5 31.5t-37.5 50t-13.5 71t15 72t40.5 52t60 31.5t72.5 10.5h178z" />
<glyph unicode="&#xb7;" horiz-adv-x="222" d="M158 305v-104h-94v104h94z" />
<glyph unicode="&#xb8;" horiz-adv-x="405" d="M236 0q16 -17 29.5 -40t13.5 -45q0 -34 -23 -52.5t-71 -18.5q-36 0 -70 9v52q26 -13 61 -13q21 0 33.5 8.5t13.5 29.5q0 15 -12.5 36.5t-21.5 33.5h47z" />
<glyph unicode="&#xb9;" horiz-adv-x="229" d="M162 600v-357h-61v300l-58 -36v50q30 15 65 43h54z" />
<glyph unicode="&#xba;" horiz-adv-x="382" d="M191 601q72 0 112 -44.5t40 -118.5t-40 -118t-112 -44q-73 0 -113 44.5t-40 117.5t40 118t113 45zM191 556q-42 0 -66.5 -32.5t-24.5 -85.5q0 -21 5 -42t16 -37.5t28.5 -26.5t41.5 -10t41.5 10t28.5 26.5t16 37.5t5 42q0 53 -24 85.5t-67 32.5zM327 234v-49h-272v49h272z " />
<glyph unicode="&#xbb;" horiz-adv-x="444" d="M148 466l93 -196l-90 -193h-78l78 193l-79 196h76zM320 466l93 -196l-90 -193h-78l78 193l-79 196h76z" />
<glyph unicode="&#xbc;" horiz-adv-x="573" d="M485 621l-375 -644h-54l376 644h53zM162 600v-357h-61v300l-58 -36v50q27 13 65 43h54zM497 358v-226h46v-48h-46v-84h-60v84h-135v44l110 230h85zM437 304h-2l-78 -172h80v172z" />
<glyph unicode="&#xbd;" horiz-adv-x="573" d="M459 621l-375 -644h-54l376 644h53zM136 600v-357h-60v300l-59 -36v50q18 8 66 43h53zM333 261q-1 8 -1 11q0 38 24 64.5t71 27.5q59 0 85 -22.5t26 -71.5q0 -30 -8.5 -52.5t-25 -45.5t-42 -52.5t-60.5 -73.5h138v-46h-209v46q43 53 71 87t44.5 57t24 42t7.5 41 q0 19 -11.5 31t-36.5 12q-20 -1 -28 -16t-8 -35v-4h-61z" />
<glyph unicode="&#xbe;" horiz-adv-x="573" d="M515 621l-375 -644h-54l376 644h53zM12 508v10q0 42 25 65t75 23q51 0 80 -23.5t29 -69.5q0 -26 -9.5 -41.5t-22.5 -24t-26.5 -12t-22.5 -5.5v-2q90 -10 90 -90q0 -52 -34 -77.5t-90 -25.5q-36 0 -56 10.5t-30 25.5t-12.5 31.5t-2.5 27.5v11h55q0 -26 10.5 -42t39.5 -16 q32 0 45.5 14t13.5 42q0 40 -19 55t-64 15v42q35 -3 55 12.5t20 46.5q0 24 -11.5 38.5t-37.5 14.5t-36.5 -14.5t-9.5 -35.5v-5h-54zM510 358v-226h46v-48h-46v-84h-60v84h-135v44l110 230h85zM450 304h-2l-78 -172h80v172z" />
<glyph unicode="&#xbf;" horiz-adv-x="444" d="M272 531v-104h-94v104h94zM266 348v-114q0 -32 -19.5 -62.5t-41.5 -60t-41 -66.5t-19 -86q0 -17 4.5 -34t13.5 -31.5t23 -23.5t34 -9q27 0 42 14.5t22.5 35.5t8.5 45t1 44h94q2 -46 -6.5 -84t-29 -65t-54.5 -42t-84 -15q-78 0 -120.5 45.5t-42.5 121.5q0 42 10 74.5 t24.5 58.5t32 47.5t42 53.5t24.5 60v93h82z" />
<glyph unicode="&#xd7;" horiz-adv-x="500" d="M413 460l44 -44l-163 -163l163 -163l-44 -44l-163 163l-163 -163l-44 44l163 163l-163 163l44 44l163 -163z" />
<glyph unicode="&#xf7;" horiz-adv-x="500" d="M297 506v-104h-94v104h94zM457 284v-62h-414v62h414zM297 104v-104h-94v104h94z" />
<glyph unicode="&#x131;" horiz-adv-x="225" d="M149 443v-443h-73v443h73z" />
<glyph unicode="&#x2c6;" horiz-adv-x="405" d="M232 648l97 -149h-55l-72 97l-71 -97h-55l97 149h59z" />
<glyph unicode="&#x2c7;" horiz-adv-x="405" d="M329 648l-97 -149h-59l-97 149h55l71 -97l72 97h55z" />
<glyph unicode="&#x2d8;" horiz-adv-x="405" d="M326 636q-8 -114 -124 -114q-114 0 -123 114h46q5 -32 25.5 -45.5t51.5 -13.5q32 0 52 13.5t26 45.5h46z" />
<glyph unicode="&#x2d9;" horiz-adv-x="405" d="M243 614v-81h-81v81h81z" />
<glyph unicode="&#x2da;" horiz-adv-x="405" d="M202 711q47 0 78 -31t31 -77q0 -23 -8.5 -43t-23 -34.5t-34.5 -23t-43 -8.5t-42.5 8.5t-34 23t-23 34.5t-8.5 43q0 46 31 77t77 31zM202 662q-26 0 -43 -16.5t-17 -42.5t17 -43t43 -17t43.5 17t17.5 43t-17.5 42.5t-43.5 16.5z" />
<glyph unicode="&#x2db;" horiz-adv-x="405" d="M221 0q-10 -13 -22.5 -33.5t-12.5 -37.5q0 -20 12.5 -28.5t30.5 -8.5q14 0 26 3.5t24 8.5v-52q-29 -8 -54 -8q-19 0 -36 3t-30 11t-20.5 21.5t-7.5 35.5q0 24 14 46t29 39h47z" />
<glyph unicode="&#x2dc;" horiz-adv-x="405" d="M333 629q0 -18 -3.5 -37.5t-12.5 -36.5t-23.5 -27t-37.5 -10q-31 0 -55 24l-23 22q-5 5 -12.5 10t-14.5 5q-10 0 -16 -6.5t-9 -15.5t-4 -19t-1 -18v-2h-49q0 18 3.5 37t12.5 36.5t24 27.5t37 10q31 0 55 -24l23 -22q5 -5 12 -10t15 -5q10 0 16 6.5t9 15.5t4 19t1 18v2h49 z" />
<glyph unicode="&#x2dd;" horiz-adv-x="405" d="M237 648l-88 -149h-54l75 149h67zM373 648l-99 -149h-53l81 149h71z" />
<glyph unicode="&#x5b0;" d="M600 -91q17 0 28.5 -11.5t11.5 -27.5t-11.5 -27.5t-28.5 -11.5t-28.5 11t-11.5 27q0 17 11.5 28.5t28.5 11.5zM600 -208q17 0 28.5 -11.5t11.5 -27.5t-11.5 -27.5t-28.5 -11.5t-28.5 11.5t-11.5 27.5t11.5 27.5t28.5 11.5z" />
<glyph unicode="&#x5b1;" d="M725 -91q16 0 27.5 -11.5t11.5 -27.5t-11.5 -27.5t-27.5 -11.5q-17 0 -28.5 11t-11.5 27t11.5 28t28.5 12zM545 -208q16 0 27.5 -11.5t11.5 -27.5t-11.5 -27.5t-27.5 -11.5q-17 0 -28.5 11.5t-11.5 27.5t12 27.5t28 11.5zM725 -208q16 0 27.5 -11.5t11.5 -27.5 t-11.5 -27.5t-27.5 -11.5q-17 0 -28.5 11.5t-11.5 27.5t12 27.5t28 11.5zM598 -91q16 0 27.5 -11.5t11.5 -27.5t-11.5 -27.5t-27.5 -11.5q-17 0 -28.5 11t-11.5 27t11.5 28t28.5 12zM472 -91q16 0 27.5 -11.5t11.5 -27.5t-11.5 -27.5t-27.5 -11.5q-17 0 -28.5 11t-11.5 27 t11.5 28t28.5 12z" />
<glyph unicode="&#x5b2;" d="M724 -91q17 0 28.5 -11.5t11.5 -27.5t-11.5 -27.5t-27.5 -11.5q-17 0 -28.5 11t-11.5 27q0 17 11.5 28.5t27.5 11.5zM458 -100h179v-60h-179v60zM724 -208q17 0 28.5 -11.5t11.5 -27.5t-11.5 -27.5t-27.5 -11.5q-17 0 -28.5 11.5t-11.5 27.5t11.5 27.5t27.5 11.5z" />
<glyph unicode="&#x5b3;" d="M719 -91q17 0 28.5 -11.5t11.5 -27.5t-11.5 -27.5t-28.5 -11.5t-28.5 11t-11.5 27q0 17 11.5 28.5t28.5 11.5zM452 -100h179v-60h-59v-117h-61v117h-59v60zM719 -208q17 0 28.5 -11.5t11.5 -27.5t-11.5 -27.5t-28.5 -11.5t-28.5 11.5t-11.5 27.5t11.5 27.5t28.5 11.5z " />
<glyph unicode="&#x5b4;" d="M598 -91q17 0 28.5 -11.5t11.5 -27.5t-11.5 -27.5t-28.5 -11.5t-28.5 11t-11.5 27q0 17 11.5 28.5t28.5 11.5z" />
<glyph unicode="&#x5b5;" d="M528 -91q16 0 27.5 -11.5t11.5 -27.5t-11.5 -27.5t-26.5 -11.5q-17 0 -28.5 11t-11.5 27q0 17 11.5 28.5t27.5 11.5zM673 -91q17 0 28.5 -11.5t11.5 -27.5t-11.5 -27.5t-27.5 -11.5q-17 0 -28 11t-11 27q0 17 11.5 28.5t26.5 11.5z" />
<glyph unicode="&#x5b6;" d="M525 -91q16 0 27.5 -11.5t11.5 -27.5t-11.5 -27.5t-26.5 -11.5q-17 0 -28.5 11t-11.5 27q0 17 11.5 28.5t27.5 11.5zM670 -91q17 0 28.5 -11.5t11.5 -27.5t-11.5 -27.5t-27.5 -11.5q-17 0 -28 11t-11 27q0 17 11.5 28.5t26.5 11.5zM598 -213q17 0 28.5 -11.5t11.5 -27.5 t-11.5 -27.5t-28.5 -11.5t-28.5 11.5t-11.5 27.5t11.5 27.5t28.5 11.5z" />
<glyph unicode="&#x5b7;" d="M705 -70v-60h-218v60h218z" />
<glyph unicode="&#x5b8;" d="M708 -100v-60h-79v-117h-60v117h-79v60h218z" />
<glyph unicode="&#x5b9;" d="M152 722q17 0 28.5 -11.5t11.5 -27.5q0 -17 -11.5 -28.5t-28.5 -11.5t-28.5 11.5t-11.5 28.5q0 16 11.5 27.5t28.5 11.5z" />
<glyph unicode="&#x5ba;" d="M304 311q17 0 28.5 -11.5t11.5 -28.5t-11.5 -28.5t-28.5 -11.5t-28.5 11.5t-11.5 28.5t11.5 28.5t28.5 11.5z" />
<glyph unicode="&#x5bb;" d="M553 -130q0 -16 -11 -27.5t-28 -11.5t-28.5 11t-11.5 27q0 17 11.5 28.5t28.5 11.5t28 -11.5t11 -27.5zM623 -144q17 0 28.5 -11.5t11.5 -27.5q0 -17 -11.5 -28.5t-27.5 -11.5q-17 0 -28.5 11.5t-11.5 27.5q0 17 11.5 28.5t27.5 11.5zM733 -198q17 0 28.5 -11.5 t11.5 -27.5t-11.5 -27.5t-27.5 -11.5q-17 0 -28.5 11.5t-11.5 27.5t11.5 27.5t27.5 11.5z" />
<glyph unicode="&#x5bc;" d="M192 340q17 0 28.5 -11.5t11.5 -28.5t-11.5 -28.5t-28.5 -11.5t-28.5 11.5t-11.5 28.5t11.5 28.5t28.5 11.5z" />
<glyph unicode="&#x5be;" horiz-adv-x="308" d="M264 614v-77h-220v77h220z" />
<glyph unicode="&#x5c1;" d="M512 722q16 0 28 -11.5t12 -28.5t-11.5 -28.5t-28.5 -11.5t-28.5 11.5t-11.5 28.5t12 28.5t28 11.5z" />
<glyph unicode="&#x5c2;" d="M86 722q17 0 28.5 -12t11.5 -28q0 -17 -11.5 -28.5t-28.5 -11.5q-16 0 -28 11.5t-12 28.5t12 28.5t28 11.5z" />
<glyph unicode="&#x5c7;" d="M836 -100v-60h-59v-117h-61v117h-59v60h179z" />
<glyph unicode="&#x5d0;" horiz-adv-x="475" d="M419 572v-196q0 -65 -20 -107.5t-65 -58.5l108 -210h-93l-163 319q-28 -16 -42 -48.5t-14 -80.5v-190h-82v205q0 69 30 111.5t80 57.5l-102 198h92l160 -313q18 12 23.5 41.5t5.5 90.5v181h82z" />
<glyph unicode="&#x5d1;" horiz-adv-x="453" d="M35 572q62 9 129 10q105 0 150.5 -57.5t45.5 -176.5v-281h78v-67h-403v67h246v281q0 89 -27 127.5t-90 38.5q-71 0 -129 -9v67z" />
<glyph unicode="&#x5d2;" horiz-adv-x="328" d="M84 572q40 10 75 10q58 0 85.5 -33t27.5 -99v-316q0 -49 3 -80t8 -54h-80q-3 16 -6.5 56.5t-3.5 81.5h-3q-27 -64 -61.5 -95.5t-98.5 -54.5v79q57 22 92 58.5t68 90.5v226q0 43 -15.5 57.5t-43.5 14.5q-20 -1 -47 -6v64z" />
<glyph unicode="&#x5d3;" horiz-adv-x="386" d="M373 572v-67h-78v-505h-82v505h-205v67h365z" />
<glyph unicode="&#x5d4;" horiz-adv-x="516" d="M68 572q85 9 196 10q107 0 151.5 -59t44.5 -175v-348h-79v348q0 86 -26.5 126t-90.5 40q-142 -2 -196 -9v67zM150 390v-390h-82v353z" />
<glyph unicode="&#x5d5;" horiz-adv-x="218" d="M150 572v-572h-82v572h82z" />
<glyph unicode="&#x5d6;" horiz-adv-x="238" d="M213 572v-61q-18 -5 -30 -15q-26 -23 -38 -76.5t-12 -122.5v-297h-82v290q0 78 17 129.5t58 83.5v2h-86v67h173z" />
<glyph unicode="&#x5d7;" horiz-adv-x="516" d="M68 572q78 9 177 10q98 1 138 -17t58.5 -59.5t18.5 -117.5v-388h-79v388q1 75 -23 101t-94 25q-63 -1 -114 -4v-510h-82v572z" />
<glyph unicode="&#x5d8;" horiz-adv-x="507" d="M255 572q31 10 74 10q59 0 89.5 -35t30.5 -102v-181q0 -157 -42.5 -218t-153.5 -61t-153.5 61t-42.5 218v308h82v-312q0 -114 23 -160.5t91 -46.5q69 0 91.5 46.5t22.5 160.5v177q0 42 -15.5 59.5t-45.5 17.5q-26 -1 -51 -9v67z" />
<glyph unicode="&#x5d9;" horiz-adv-x="212" d="M65 572h82v-290l-75 -33h-7v323z" />
<glyph unicode="&#x5da;" horiz-adv-x="378" d="M244 348q0 95 -30 131t-87 35q-56 0 -124 -9v67q60 10 124 10q105 0 150.5 -58t45.5 -176v-539h-79v539z" />
<glyph unicode="&#x5db;" horiz-adv-x="410" d="M278 348q0 87 -26.5 126.5t-90.5 39.5q-76 -1 -124 -9v67q39 8 124 10q100 1 148 -54.5t48 -179.5v-78q1 -135 -19 -182.5t-58 -67.5t-99 -20h-144v67h151q57 0 73.5 42t16.5 126v113z" />
<glyph unicode="&#x5dc;" horiz-adv-x="435" d="M104 680v-108h299v-75l-161 -497h-85l160 503v2h-295v175h82z" />
<glyph unicode="&#x5dd;" horiz-adv-x="513" d="M245 572q105 0 158.5 -57.5t53.5 -178.5v-336h-392v572h180zM378 336q0 79 -32 124t-101 45h-98v-438h231v269z" />
<glyph unicode="&#x5de;" horiz-adv-x="521" d="M150 504q20 27 62 52.5t92 25.5q82 0 121.5 -54t39.5 -158v-370h-219v67h140v305q0 77 -22 109.5t-74 32.5q-41 0 -81 -28.5t-59 -53.5v-432h-82v403q0 84 -18 169h85q9 -26 12 -68h3z" />
<glyph unicode="&#x5df;" horiz-adv-x="197" d="M133 572v-763h-82v763h82z" />
<glyph unicode="&#x5e0;" horiz-adv-x="316" d="M66 572q41 10 81 10q58 0 85.5 -34.5t27.5 -97.5v-303q0 -37 -3 -80t-8 -67h-231v67h160v375q0 37 -14.5 54.5t-48.5 17.5q-13 1 -49 -9v67z" />
<glyph unicode="&#x5e1;" horiz-adv-x="504" d="M56 572q83 9 196 10q103 0 149.5 -55.5t46.5 -178.5v-84q0 -160 -43.5 -219.5t-152.5 -59.5t-152.5 59.5t-43.5 219.5v308zM366 357q0 78 -24.5 118.5t-89.5 38.5q-66 -1 -114 -4v-250q0 -117 23.5 -162t90.5 -45t90.5 45t23.5 162v97z" />
<glyph unicode="&#x5e2;" horiz-adv-x="470" d="M414 572v-336q0 -118 -52 -177t-144 -59h-188v67h119l-88 505h81l86 -505h4q42 0 72.5 45t30.5 123v337h79z" />
<glyph unicode="&#x5e3;" horiz-adv-x="481" d="M231 199q-25 -4 -49 -4q-70 0 -107.5 46t-37.5 139q0 106 46.5 154t147.5 48q98 0 147 -53t49 -183v-537h-82v533q0 92 -28.5 132t-85.5 40q-64 0 -89 -29t-25 -105q0 -60 19 -92t58 -32q14 0 37 3v-60z" />
<glyph unicode="&#x5e4;" horiz-adv-x="492" d="M240 199q-19 -4 -49 -4q-68 0 -106.5 45.5t-38.5 140.5q0 104 46 152.5t148 48.5q103 0 149.5 -56t46.5 -180v-68q0 -151 -48.5 -214.5t-163.5 -63.5h-141v67h141q56 0 83.5 27.5t37 73t9.5 106.5v68q0 90 -28.5 131.5t-85.5 40.5q-65 0 -89.5 -29.5t-24.5 -103.5 q0 -65 20.5 -95t56.5 -30q21 0 37 3v-60z" />
<glyph unicode="&#x5e5;" horiz-adv-x="381" d="M359 572v-223q0 -67 -36.5 -113.5t-108.5 -63.5v-363h-82v367l-124 396h86l102 -350q33 11 57 47.5t24 94.5v208h82z" />
<glyph unicode="&#x5e6;" horiz-adv-x="452" d="M413 572v-175q0 -67 -27 -107t-70 -56l86 -146v-88h-362v67h284l-296 505h91l164 -281q25 19 36.5 48t11.5 73v160h82z" />
<glyph unicode="&#x5e7;" horiz-adv-x="515" d="M480 572v-75l-177 -497h-85l176 503v2h-326v67h412zM150 390v-581h-82v544z" />
<glyph unicode="&#x5e8;" horiz-adv-x="406" d="M18 572q76 10 129 10q108 0 156 -59t48 -175v-348h-79v348q0 84 -29.5 125t-95.5 41q-81 0 -129 -9v67z" />
<glyph unicode="&#x5e9;" horiz-adv-x="609" d="M554 572v-310q0 -141 -62.5 -209t-186.5 -68q-123 0 -186 68t-63 209v310h82v-310q0 -65 12 -107q48 21 81 63t33 98v256h82v-271q0 -70 -46 -121t-128 -74q22 -31 55.5 -42t77.5 -11q96 0 131.5 51t35.5 158v310h82z" />
<glyph unicode="&#x5ea;" horiz-adv-x="514" d="M38 572q96 9 205 10q87 2 131 -15t64 -59.5t20 -121.5v-386h-79v386q1 75 -22.5 102t-94.5 26q-24 0 -71 -2v-391q0 -56 -27 -90.5t-75 -34.5q-19 0 -51 4v70q16 -2 35 -2q17 0 26.5 11.5t9.5 37.5v391l-71 -3v67z" />
<glyph unicode="&#x5f3;" horiz-adv-x="222" d="M186 614l-82 -199h-69l43 199h108z" />
<glyph unicode="&#x5f4;" horiz-adv-x="444" d="M214 614l-82 -199h-69l43 199h108zM381 614l-82 -199h-69l43 199h108z" />
<glyph unicode="&#x2000;" horiz-adv-x="380" />
<glyph unicode="&#x2001;" horiz-adv-x="760" />
<glyph unicode="&#x2002;" horiz-adv-x="380" />
<glyph unicode="&#x2003;" horiz-adv-x="760" />
<glyph unicode="&#x2004;" horiz-adv-x="253" />
<glyph unicode="&#x2005;" horiz-adv-x="190" />
<glyph unicode="&#x2006;" horiz-adv-x="126" />
<glyph unicode="&#x2007;" horiz-adv-x="126" />
<glyph unicode="&#x2008;" horiz-adv-x="95" />
<glyph unicode="&#x2009;" horiz-adv-x="152" />
<glyph unicode="&#x200a;" horiz-adv-x="42" />
<glyph unicode="&#x2010;" horiz-adv-x="333" d="M276 311v-77h-220v77h220z" />
<glyph unicode="&#x2011;" horiz-adv-x="333" d="M276 311v-77h-220v77h220z" />
<glyph unicode="&#x2012;" horiz-adv-x="333" d="M276 311v-77h-220v77h220z" />
<glyph unicode="&#x2013;" horiz-adv-x="500" d="M500 299v-56h-500v56h500z" />
<glyph unicode="&#x2014;" horiz-adv-x="1000" d="M1000 299v-56h-1000v56h1000z" />
<glyph unicode="&#x2018;" horiz-adv-x="222" d="M186 722l-43 -199h-108l82 199h69z" />
<glyph unicode="&#x2019;" horiz-adv-x="222" d="M186 722l-82 -199h-69l43 199h108z" />
<glyph unicode="&#x201a;" horiz-adv-x="222" d="M186 88l-82 -199h-69l43 199h108z" />
<glyph unicode="&#x201c;" horiz-adv-x="444" d="M214 721l-43 -199h-108l82 199h69zM381 721l-43 -199h-108l82 199h69z" />
<glyph unicode="&#x201d;" horiz-adv-x="444" d="M214 722l-82 -199h-69l43 199h108zM381 722l-82 -199h-69l43 199h108z" />
<glyph unicode="&#x201e;" horiz-adv-x="444" d="M214 88l-82 -199h-69l43 199h108zM381 88l-82 -199h-69l43 199h108z" />
<glyph unicode="&#x2020;" horiz-adv-x="405" d="M237 590v-166h145v-60h-145v-442h-69v442h-145v60h145v166h69z" />
<glyph unicode="&#x2021;" horiz-adv-x="405" d="M237 590v-166h145v-60h-145v-215h145v-61h-145v-166h-69v166h-145v61h145v215h-145v60h145v166h69z" />
<glyph unicode="&#x2022;" horiz-adv-x="333" d="M166 515q31 0 59 -12.5t49 -33t33.5 -49t12.5 -59.5t-12.5 -59t-33.5 -49t-49 -33t-59 -12t-59 12t-49 33t-33 49t-12 59t12 59t33 49t49 33.5t59 12.5z" />
<glyph unicode="&#x2026;" horiz-adv-x="1000" d="M214 104v-104h-94v104h94zM547 104v-104h-94v104h94zM880 104v-104h-94v104h94z" />
<glyph unicode="&#x202f;" horiz-adv-x="152" />
<glyph unicode="&#x2030;" horiz-adv-x="889" d="M499 760l-343 -794h-61l341 794h63zM138 734q40 0 64 -13.5t35.5 -38t13.5 -55t2 -63.5q0 -32 -2.5 -64.5t-14.5 -59.5t-35.5 -42.5t-62.5 -15.5q-41 1 -64 16.5t-34.5 43t-14 59t-2.5 63.5q0 33 2 62t12.5 54t34.5 39.5t66 14.5zM138 678q-18 0 -28.5 -7.5t-15.5 -20 t-6 -27.5t-1 -29v-12v-35q0 -18 1.5 -37t6.5 -35t15.5 -26.5t27.5 -10.5t27 10t15.5 26.5t7 35.5t1.5 37v35v12q0 14 -1 29t-6 27.5t-15.5 20t-28.5 7.5zM459 337q42 0 65.5 -14t34.5 -38.5t13 -54.5t2 -63q0 -32 -2.5 -64.5t-14 -58.5t-34.5 -42.5t-64 -16.5t-64 16.5 t-34.5 43t-14 58.5t-2.5 64q0 33 2 63t13.5 55t34 38t65.5 14zM750 337q42 0 65 -14t34.5 -37.5t13.5 -54.5t2 -64q0 -32 -2.5 -64.5t-14 -58.5t-34.5 -42.5t-64 -16.5t-64 16.5t-34.5 42.5t-14 58.5t-2.5 64.5q0 33 2 64t13.5 54.5t34.5 37.5t65 14zM459 281 q-18 0 -28.5 -8t-15.5 -20t-6 -27t-1 -29v-12v-35q0 -18 1.5 -37t6.5 -35t15.5 -26.5t27.5 -10.5t27 10t15.5 26.5t7 35.5t1.5 37v35v12q0 14 -1 29t-6 27t-15.5 20t-28.5 8zM750 281q-18 0 -28.5 -8t-15.5 -20t-6 -27t-1 -29v-12v-35q0 -18 1.5 -37t6.5 -35t15.5 -26.5 t27.5 -10.5t27 10.5t15.5 26.5t7 35t1.5 37v35v12q0 14 -1 29t-6 27t-15.5 20t-28.5 8z" />
<glyph unicode="&#x2044;" horiz-adv-x="167" d="M248 733l-266 -761h-62l263 761h65z" />
<glyph unicode="&#x205f;" horiz-adv-x="190" />
<glyph unicode="&#x20ac;" horiz-adv-x="382" d="M57 427q0 91 38.5 137.5t117.5 46.5q71 0 111 -38.5t40 -117.5h-77q0 39 -17.5 62.5t-56.5 23.5q-41 -1 -58.5 -28.5t-17.5 -77.5v-51h137l-9 -57h-129v-57h119l-10 -58h-108v-50q0 -55 19 -82.5t62 -27.5q38 0 55 20t17 67h75q0 -154 -152 -154q-80 0 -118.5 44.5 t-38.5 131.5v51h-50l9 58h40v57h-49l9 57h42v43z" />
<glyph unicode="&#x2122;" horiz-adv-x="810" d="M322 590v-37h-81v-191h-45v191h-79v37h205zM635 590v-228h-45v191l-77 -120h-21l-81 120v-191h-45v228h68l69 -101l65 101h67z" />
<glyph unicode="&#x2215;" horiz-adv-x="167" d="M333 719l-436 -749h-63l437 749h62z" />
<glyph unicode="&#xe000;" horiz-adv-x="500" d="M0 0v0v0v0v0z" />
<glyph unicode="&#xfb2a;" horiz-adv-x="609" d="M520 722q16 0 28 -11.5t12 -28.5t-11.5 -28.5t-28.5 -11.5t-28.5 12t-11.5 28q0 17 12 28.5t28 11.5zM554 572v-310q0 -141 -62.5 -209t-186.5 -68q-123 0 -186 68t-63 209v310h82v-310q0 -65 12 -107q48 21 81 63t33 98v256h82v-271q0 -70 -46 -121t-128 -74 q22 -31 55.5 -42t77.5 -11q96 0 131.5 51t35.5 158v310h82z" />
<glyph unicode="&#xfb2b;" horiz-adv-x="609" d="M92 722q16 0 28 -11.5t12 -28.5q0 -16 -11.5 -28t-28.5 -12t-28.5 12t-11.5 28q0 17 12 28.5t28 11.5zM554 572v-310q0 -141 -62.5 -209t-186.5 -68q-123 0 -186 68t-63 209v310h82v-310q0 -65 12 -107q48 21 81 63t33 98v256h82v-271q0 -70 -46 -121t-128 -74 q22 -31 55.5 -42t77.5 -11q96 0 131.5 51t35.5 158v310h82z" />
<glyph unicode="&#xfb35;" horiz-adv-x="218" d="M150 572v-572h-82v572h82zM-6 340q16 0 28 -11.5t12 -28.5t-12 -28.5t-28 -11.5q-17 0 -28.5 12t-11.5 28q0 17 12 28.5t28 11.5z" />
<glyph unicode="&#xfb4b;" horiz-adv-x="218" d="M96 707q16 0 28 -11.5t12 -27.5t-11.5 -28t-28.5 -12t-28.5 12t-11.5 28t12 27.5t28 11.5zM150 572v-572h-82v572h82z" />
<glyph horiz-adv-x="682" d="M67 576q24 2 68.5 5t108.5 3q49 0 88.5 -4.5t67.5 -23.5t43.5 -58.5t15.5 -109.5v-187h-79v187q0 39 -5 64t-18.5 39t-36 19.5t-57.5 5.5q-45 0 -114 -4v-512h-82v576zM542 572h82v-317q0 -79 -12 -131.5t-36.5 -83t-62 -43t-88.5 -12.5q-57 0 -96.5 12.5t-64 43.5 t-35.5 83t-11 131v116h82v-120q0 -62 7.5 -101t22.5 -60t38.5 -29t56.5 -8q25 0 46.5 7.5t37.5 29t24.5 60.5t8.5 101v321z" />
</font>
</defs>
</svg>
